<!-- generated by tools/diagrams; do not edit, change the generator and run `python -m tools.diagrams.build` -->
<svg xmlns="http://www.w3.org/2000/svg" viewBox="0 0 640 440" role="img" data-prefix="cp">
<title>The standard left-hand circuit</title>
<desc>Plan view of a left-hand circuit on runway 24: upwind leg climbing straight ahead, left turn onto crosswind at or above 500 feet, downwind at 1,000 feet above aerodrome level parallel to the runway, base leg descending, final onto the runway. The dead side is the right-hand side of the runway, away from the circuit.</desc>
<style>.cp-plane{offset-path:path("M200 262 L500 262 Q540 262 540 222 L540 150 Q540 110 500 110 L140 110 Q100 110 100 150 L100 222 Q100 262 140 262 L200 262");offset-rotate:auto;animation:cp-fly 18s linear infinite}
@keyframes cp-fly{to{offset-distance:100%}}
.cp-plane-static{display:none}
@supports not (offset-path: path("M0 0")){.cp-plane{display:none}.cp-plane-static{display:inline}}</style>
<defs><marker id="arrow" viewBox="0 0 8 8" refX="7" refY="4" markerWidth="5" markerHeight="5" orient="auto-start-reverse"><path d="M0 0 L8 4 L0 8 z" fill="context-stroke"/></marker></defs>
<rect x="20" y="62" width="600" height="160" rx="10" fill="var(--color-brand-soft)" stroke="none" fill-opacity="0.35"/>
<rect x="20" y="300" width="600" height="86" rx="10" fill="var(--color-surface-2)" stroke="none"/>
<text x="40" y="326" font-size="14" fill="var(--color-fg-muted)" font-weight="700">Dead side</text>
<text x="40" y="344" font-size="11" fill="var(--color-fg-muted)">the other side of the runway for a left-hand circuit: kept clear of circuit traffic;</text>
<text x="40" y="358" font-size="11" fill="var(--color-fg-muted)">aircraft joining from overhead descend here to circuit height, then cross to join crosswind</text>
<text x="40" y="84" font-size="14" fill="var(--color-brand-fg)" font-weight="700">Circuit side</text>
<text x="40" y="100" font-size="11" fill="var(--color-brand-fg)">all turns to the left, 1,000 ft above aerodrome level</text>
<g transform="translate(300 262) rotate(0)"><rect x="-110" y="-13" width="220" height="26" rx="1" fill="var(--color-tarmac)" stroke="none"/><line x1="-62" y1="0" x2="-50" y2="0" stroke="var(--color-paint)" stroke-width="2.08" stroke-linecap="butt"/><line x1="-38" y1="0" x2="-26" y2="0" stroke="var(--color-paint)" stroke-width="2.08" stroke-linecap="butt"/><line x1="-14" y1="0" x2="-2" y2="0" stroke="var(--color-paint)" stroke-width="2.08" stroke-linecap="butt"/><line x1="10" y1="0" x2="22" y2="0" stroke="var(--color-paint)" stroke-width="2.08" stroke-linecap="butt"/><line x1="34" y1="0" x2="46" y2="0" stroke="var(--color-paint)" stroke-width="2.08" stroke-linecap="butt"/><line x1="58" y1="0" x2="70" y2="0" stroke="var(--color-paint)" stroke-width="2.08" stroke-linecap="butt"/><rect x="-102" y="-9.88" width="14" height="3.12" fill="var(--color-paint)" stroke="none"/><rect x="-102" y="-4.16" width="14" height="3.12" fill="var(--color-paint)" stroke="none"/><rect x="-102" y="1.56" width="14" height="3.12" fill="var(--color-paint)" stroke="none"/><rect x="-102" y="7.28" width="14" height="3.12" fill="var(--color-paint)" stroke="none"/><rect x="88" y="-9.88" width="14" height="3.12" fill="var(--color-paint)" stroke="none"/><rect x="88" y="-4.16" width="14" height="3.12" fill="var(--color-paint)" stroke="none"/><rect x="88" y="1.56" width="14" height="3.12" fill="var(--color-paint)" stroke="none"/><rect x="88" y="7.28" width="14" height="3.12" fill="var(--color-paint)" stroke="none"/></g>
<text x="230" y="267" font-size="12" text-anchor="middle" fill="var(--color-paint)" font-weight="700" class="num">24</text>
<text x="370" y="267" font-size="12" text-anchor="middle" fill="var(--color-paint)" font-weight="700" class="num">06</text>
<path d="M200 262 L500 262 Q540 262 540 222 L540 150 Q540 110 500 110 L140 110 Q100 110 100 150 L100 222 Q100 262 140 262 L200 262" stroke="var(--color-brand)" stroke-width="2" fill="none" stroke-dasharray="8 6" stroke-linecap="round" stroke-linejoin="round"/>
<rect x="400.68" y="230.4" width="58.64" height="19.2" rx="9.6" fill="var(--color-brand-soft)" stroke="none"/><text x="430" y="244.2" font-size="12" text-anchor="middle" fill="var(--color-brand-fg)" font-weight="600">Upwind</text>
<text x="430" y="222" font-size="11" text-anchor="middle" fill="var(--color-fg-muted)">climb straight ahead, no turn below 500 ft</text>
<rect x="547.52" y="166.4" width="80.96" height="19.2" rx="9.6" fill="var(--color-brand-soft)" stroke="none"/><text x="588" y="180.2" font-size="12" text-anchor="middle" fill="var(--color-brand-fg)" font-weight="600">Crosswind</text>
<text x="588" y="196" font-size="11" text-anchor="middle" fill="var(--color-fg-muted)">90° left, at or</text><text x="588" y="210.3" font-size="11" text-anchor="middle" fill="var(--color-fg-muted)">above 500 ft</text>
<rect x="383.24" y="100.4" width="73.52" height="19.2" rx="9.6" fill="var(--color-brand-soft)" stroke="none"/><text x="420" y="114.2" font-size="12" text-anchor="middle" fill="var(--color-brand-fg)" font-weight="600">Downwind</text>
<text x="420" y="132" font-size="11" text-anchor="middle" fill="var(--color-fg-muted)">parallel to the runway at 1,000 ft: downwind call, pre-landing checks</text>
<rect x="32.12" y="166.4" width="43.76" height="19.2" rx="9.6" fill="var(--color-brand-soft)" stroke="none"/><text x="54" y="180.2" font-size="12" text-anchor="middle" fill="var(--color-brand-fg)" font-weight="600">Base</text>
<text x="54" y="196" font-size="11" text-anchor="middle" fill="var(--color-fg-muted)">descending,</text><text x="54" y="210.3" font-size="11" text-anchor="middle" fill="var(--color-fg-muted)">turn onto final</text>
<rect x="144.4" y="230.4" width="51.2" height="19.2" rx="9.6" fill="var(--color-brand-soft)" stroke="none"/><text x="170" y="244.2" font-size="12" text-anchor="middle" fill="var(--color-brand-fg)" font-weight="600">Final</text>
<text x="170" y="222" font-size="11" text-anchor="middle" fill="var(--color-fg-muted)">lined up, descending to land</text>
<line x1="600" y1="30" x2="520" y2="30" stroke="var(--color-sky-fg)" stroke-width="2" stroke-linecap="round" marker-end="url(#arrow)"/>
<text x="510" y="34" font-size="12" text-anchor="end" fill="var(--color-sky-fg)" font-weight="600">wind from 240°</text>
<text x="510" y="50" font-size="11" text-anchor="end" fill="var(--color-sky-fg)">take off and land into it</text>
<g transform="translate(606 392)"><line x1="0" y1="0" x2="-16" y2="28" stroke="var(--color-fg-muted)" stroke-width="1.25" stroke-linecap="round" marker-end="url(#arrow)"/><text x="-24" y="40" font-size="12" text-anchor="middle" fill="var(--color-fg-muted)" font-weight="700">N</text></g>
<g class="cp-plane"><g transform="translate(0 0) rotate(0) scale(0.32)"><path d="M-37.6 -1.2 L-41.4 -16.7 L-50.8 -16.7 L-51.2 -1.2 Z M-37.6 1.2 L-41.4 16.7 L-50.8 16.7 L-51.2 1.2 Z" stroke="var(--color-fg)" stroke-width="2" fill="var(--color-surface)" stroke-linecap="round" stroke-linejoin="round"/><line x1="-46" y1="-2" x2="-46" y2="-16.2" stroke="var(--color-fg)" stroke-width="1" stroke-linecap="round"/><line x1="-46" y1="2" x2="-46" y2="16.2" stroke="var(--color-fg)" stroke-width="1" stroke-linecap="round"/><path d="M18.8 0 C18.8 -2.6 17 -3.9 14 -4.4 L8.4 -4.9 L-12 -5.2 L-47.7 -1.3 L-47.7 1.3 L-12 5.2 L8.4 4.9 L14 4.4 C17 3.9 18.8 2.6 18.8 0 Z" stroke="var(--color-fg)" stroke-width="2" fill="var(--color-surface)" stroke-linecap="round" stroke-linejoin="round"/><line x1="-30" y1="0" x2="-51.4" y2="0" stroke="var(--color-fg)" stroke-width="2" stroke-linecap="round"/><path d="M7.4 -4.3 Q8.8 0 7.4 4.3 L4 4.9 L4 -4.9 Z" stroke="var(--color-fg)" stroke-width="1" fill="var(--color-surface-2)" stroke-linecap="round" stroke-linejoin="round"/><path d="M-12.7 -4.3 L-18.6 -2.4 L-18.6 2.4 L-12.7 4.3 Z" stroke="var(--color-fg)" stroke-width="1" fill="var(--color-surface-2)" stroke-linecap="round" stroke-linejoin="round"/><path d="M4 -24 L4 24 L-1.6 47.6 Q-2.3 50 -4.8 50 L-11 50 Q-12.7 50 -12.7 47.6 L-12.7 -47.6 Q-12.7 -50 -11 -50 L-4.8 -50 Q-2.3 -50 -1.6 -47.6 Z" stroke="var(--color-fg)" stroke-width="2" fill="var(--color-surface)" stroke-linecap="round" stroke-linejoin="round"/><line x1="-9.6" y1="-46" x2="-9.6" y2="-25" stroke="var(--color-fg)" stroke-width="1" stroke-linecap="round"/><line x1="-9.6" y1="25" x2="-9.6" y2="46" stroke="var(--color-fg)" stroke-width="1" stroke-linecap="round"/><path d="M18.6 -2 C20.2 -1.8 21.2 -0.9 21.2 0 C21.2 0.9 20.2 1.8 18.6 2 Z" stroke="var(--color-fg)" stroke-width="2" fill="var(--color-surface)" stroke-linecap="round" stroke-linejoin="round"/><line x1="19.3" y1="-8.6" x2="19.3" y2="8.6" stroke="var(--color-fg)" stroke-width="1.25" stroke-linecap="round"/></g></g>
<g class="cp-plane-static"><g transform="translate(300 110) rotate(180) scale(0.32)"><path d="M-37.6 -1.2 L-41.4 -16.7 L-50.8 -16.7 L-51.2 -1.2 Z M-37.6 1.2 L-41.4 16.7 L-50.8 16.7 L-51.2 1.2 Z" stroke="var(--color-fg)" stroke-width="2" fill="var(--color-surface)" stroke-linecap="round" stroke-linejoin="round"/><line x1="-46" y1="-2" x2="-46" y2="-16.2" stroke="var(--color-fg)" stroke-width="1" stroke-linecap="round"/><line x1="-46" y1="2" x2="-46" y2="16.2" stroke="var(--color-fg)" stroke-width="1" stroke-linecap="round"/><path d="M18.8 0 C18.8 -2.6 17 -3.9 14 -4.4 L8.4 -4.9 L-12 -5.2 L-47.7 -1.3 L-47.7 1.3 L-12 5.2 L8.4 4.9 L14 4.4 C17 3.9 18.8 2.6 18.8 0 Z" stroke="var(--color-fg)" stroke-width="2" fill="var(--color-surface)" stroke-linecap="round" stroke-linejoin="round"/><line x1="-30" y1="0" x2="-51.4" y2="0" stroke="var(--color-fg)" stroke-width="2" stroke-linecap="round"/><path d="M7.4 -4.3 Q8.8 0 7.4 4.3 L4 4.9 L4 -4.9 Z" stroke="var(--color-fg)" stroke-width="1" fill="var(--color-surface-2)" stroke-linecap="round" stroke-linejoin="round"/><path d="M-12.7 -4.3 L-18.6 -2.4 L-18.6 2.4 L-12.7 4.3 Z" stroke="var(--color-fg)" stroke-width="1" fill="var(--color-surface-2)" stroke-linecap="round" stroke-linejoin="round"/><path d="M4 -24 L4 24 L-1.6 47.6 Q-2.3 50 -4.8 50 L-11 50 Q-12.7 50 -12.7 47.6 L-12.7 -47.6 Q-12.7 -50 -11 -50 L-4.8 -50 Q-2.3 -50 -1.6 -47.6 Z" stroke="var(--color-fg)" stroke-width="2" fill="var(--color-surface)" stroke-linecap="round" stroke-linejoin="round"/><line x1="-9.6" y1="-46" x2="-9.6" y2="-25" stroke="var(--color-fg)" stroke-width="1" stroke-linecap="round"/><line x1="-9.6" y1="25" x2="-9.6" y2="46" stroke="var(--color-fg)" stroke-width="1" stroke-linecap="round"/><path d="M18.6 -2 C20.2 -1.8 21.2 -0.9 21.2 0 C21.2 0.9 20.2 1.8 18.6 2 Z" stroke="var(--color-fg)" stroke-width="2" fill="var(--color-surface)" stroke-linecap="round" stroke-linejoin="round"/><line x1="19.3" y1="-8.6" x2="19.3" y2="8.6" stroke="var(--color-fg)" stroke-width="1.25" stroke-linecap="round"/></g></g>
<text x="40" y="418" font-size="11" fill="var(--color-fg-faint)">Legs are named for the aeroplane's direction relative to the wind: upwind into it, downwind with it.</text>
</svg>
