<!-- generated by tools/diagrams; do not edit, change the generator and run `python -m tools.diagrams.build` -->
<svg xmlns="http://www.w3.org/2000/svg" viewBox="0 0 640 400" role="img" data-prefix="cbc">
<title>A collision course does not move on the windscreen</title>
<desc>Plan view of two aircraft on converging tracks, shown at equal time intervals. The line of sight between them stays parallel to itself: a constant relative bearing. From the cockpit the other aircraft stays fixed on the windscreen and only grows, slowly at first and then very fast, so peripheral vision, which hunts for movement, does not notice it.</desc>
<defs><marker id="arrow" viewBox="0 0 8 8" refX="7" refY="4" markerWidth="5" markerHeight="5" orient="auto-start-reverse"><path d="M0 0 L8 4 L0 8 z" fill="context-stroke"/></marker></defs>
<rect x="16" y="14" width="380" height="372" rx="10" fill="var(--color-surface)" stroke="var(--color-line-strong)" stroke-width="1.25"/>
<text x="28" y="36" font-size="14" fill="var(--color-fg)" font-weight="700">From above: equal time steps</text>
<line x1="60" y1="330" x2="340" y2="330" stroke="var(--color-line-strong)" stroke-width="1" stroke-dasharray="4 3" stroke-linecap="round"/>
<line x1="270" y1="70" x2="340" y2="330" stroke="var(--color-line-strong)" stroke-width="1" stroke-dasharray="4 3" stroke-linecap="round"/>
<line x1="67" y1="330" x2="271.82" y2="76.76" stroke="var(--color-brand)" stroke-width="1.25" stroke-linecap="round" opacity="1.0"/>
<line x1="123" y1="330" x2="285.82" y2="128.76" stroke="var(--color-brand)" stroke-width="1.25" stroke-dasharray="4 3" stroke-linecap="round" opacity="0.88"/>
<line x1="179" y1="330" x2="299.82" y2="180.76" stroke="var(--color-brand)" stroke-width="1.25" stroke-dasharray="4 3" stroke-linecap="round" opacity="0.76"/>
<line x1="235" y1="330" x2="313.82" y2="232.76" stroke="var(--color-brand)" stroke-width="1.25" stroke-dasharray="4 3" stroke-linecap="round" opacity="0.64"/>
<line x1="291" y1="330" x2="327.82" y2="284.76" stroke="var(--color-brand)" stroke-width="1.25" stroke-dasharray="4 3" stroke-linecap="round" opacity="0.52"/>
<g transform="translate(60 330) rotate(0) scale(0.32)"><path d="M-37.6 -1.2 L-41.4 -16.7 L-50.8 -16.7 L-51.2 -1.2 Z M-37.6 1.2 L-41.4 16.7 L-50.8 16.7 L-51.2 1.2 Z" stroke="var(--color-fg)" stroke-width="2" fill="var(--color-surface)" stroke-linecap="round" stroke-linejoin="round"/><line x1="-46" y1="-2" x2="-46" y2="-16.2" stroke="var(--color-fg)" stroke-width="1" stroke-linecap="round"/><line x1="-46" y1="2" x2="-46" y2="16.2" stroke="var(--color-fg)" stroke-width="1" stroke-linecap="round"/><path d="M18.8 0 C18.8 -2.6 17 -3.9 14 -4.4 L8.4 -4.9 L-12 -5.2 L-47.7 -1.3 L-47.7 1.3 L-12 5.2 L8.4 4.9 L14 4.4 C17 3.9 18.8 2.6 18.8 0 Z" stroke="var(--color-fg)" stroke-width="2" fill="var(--color-surface)" stroke-linecap="round" stroke-linejoin="round"/><line x1="-30" y1="0" x2="-51.4" y2="0" stroke="var(--color-fg)" stroke-width="2" stroke-linecap="round"/><path d="M7.4 -4.3 Q8.8 0 7.4 4.3 L4 4.9 L4 -4.9 Z" stroke="var(--color-fg)" stroke-width="1" fill="var(--color-surface-2)" stroke-linecap="round" stroke-linejoin="round"/><path d="M-12.7 -4.3 L-18.6 -2.4 L-18.6 2.4 L-12.7 4.3 Z" stroke="var(--color-fg)" stroke-width="1" fill="var(--color-surface-2)" stroke-linecap="round" stroke-linejoin="round"/><path d="M4 -24 L4 24 L-1.6 47.6 Q-2.3 50 -4.8 50 L-11 50 Q-12.7 50 -12.7 47.6 L-12.7 -47.6 Q-12.7 -50 -11 -50 L-4.8 -50 Q-2.3 -50 -1.6 -47.6 Z" stroke="var(--color-fg)" stroke-width="2" fill="var(--color-surface)" stroke-linecap="round" stroke-linejoin="round"/><line x1="-9.6" y1="-46" x2="-9.6" y2="-25" stroke="var(--color-fg)" stroke-width="1" stroke-linecap="round"/><line x1="-9.6" y1="25" x2="-9.6" y2="46" stroke="var(--color-fg)" stroke-width="1" stroke-linecap="round"/><path d="M18.6 -2 C20.2 -1.8 21.2 -0.9 21.2 0 C21.2 0.9 20.2 1.8 18.6 2 Z" stroke="var(--color-fg)" stroke-width="2" fill="var(--color-surface)" stroke-linecap="round" stroke-linejoin="round"/><line x1="19.3" y1="-8.6" x2="19.3" y2="8.6" stroke="var(--color-fg)" stroke-width="1.25" stroke-linecap="round"/></g>
<g transform="translate(270 70) rotate(74.93) scale(0.32)"><path d="M-37.6 -1.2 L-41.4 -16.7 L-50.8 -16.7 L-51.2 -1.2 Z M-37.6 1.2 L-41.4 16.7 L-50.8 16.7 L-51.2 1.2 Z" stroke="var(--color-bad)" stroke-width="2" fill="var(--color-surface)" stroke-linecap="round" stroke-linejoin="round"/><line x1="-46" y1="-2" x2="-46" y2="-16.2" stroke="var(--color-bad)" stroke-width="1" stroke-linecap="round"/><line x1="-46" y1="2" x2="-46" y2="16.2" stroke="var(--color-bad)" stroke-width="1" stroke-linecap="round"/><path d="M18.8 0 C18.8 -2.6 17 -3.9 14 -4.4 L8.4 -4.9 L-12 -5.2 L-47.7 -1.3 L-47.7 1.3 L-12 5.2 L8.4 4.9 L14 4.4 C17 3.9 18.8 2.6 18.8 0 Z" stroke="var(--color-bad)" stroke-width="2" fill="var(--color-surface)" stroke-linecap="round" stroke-linejoin="round"/><line x1="-30" y1="0" x2="-51.4" y2="0" stroke="var(--color-bad)" stroke-width="2" stroke-linecap="round"/><path d="M7.4 -4.3 Q8.8 0 7.4 4.3 L4 4.9 L4 -4.9 Z" stroke="var(--color-bad)" stroke-width="1" fill="var(--color-surface-2)" stroke-linecap="round" stroke-linejoin="round"/><path d="M-12.7 -4.3 L-18.6 -2.4 L-18.6 2.4 L-12.7 4.3 Z" stroke="var(--color-bad)" stroke-width="1" fill="var(--color-surface-2)" stroke-linecap="round" stroke-linejoin="round"/><path d="M4 -24 L4 24 L-1.6 47.6 Q-2.3 50 -4.8 50 L-11 50 Q-12.7 50 -12.7 47.6 L-12.7 -47.6 Q-12.7 -50 -11 -50 L-4.8 -50 Q-2.3 -50 -1.6 -47.6 Z" stroke="var(--color-bad)" stroke-width="2" fill="var(--color-surface)" stroke-linecap="round" stroke-linejoin="round"/><line x1="-9.6" y1="-46" x2="-9.6" y2="-25" stroke="var(--color-bad)" stroke-width="1" stroke-linecap="round"/><line x1="-9.6" y1="25" x2="-9.6" y2="46" stroke="var(--color-bad)" stroke-width="1" stroke-linecap="round"/><path d="M18.6 -2 C20.2 -1.8 21.2 -0.9 21.2 0 C21.2 0.9 20.2 1.8 18.6 2 Z" stroke="var(--color-bad)" stroke-width="2" fill="var(--color-surface)" stroke-linecap="round" stroke-linejoin="round"/><line x1="19.3" y1="-8.6" x2="19.3" y2="8.6" stroke="var(--color-bad)" stroke-width="1.25" stroke-linecap="round"/></g>
<text x="60" y="356" font-size="11" text-anchor="middle" fill="var(--color-fg-muted)" class="num">1</text>
<text x="288" y="74" font-size="11" fill="var(--color-bad)" class="num">1</text>
<g transform="translate(116 330) rotate(0) scale(0.32)"><path d="M-37.6 -1.2 L-41.4 -16.7 L-50.8 -16.7 L-51.2 -1.2 Z M-37.6 1.2 L-41.4 16.7 L-50.8 16.7 L-51.2 1.2 Z" stroke="var(--color-fg)" stroke-width="2" fill="var(--color-surface)" stroke-linecap="round" stroke-linejoin="round"/><line x1="-46" y1="-2" x2="-46" y2="-16.2" stroke="var(--color-fg)" stroke-width="1" stroke-linecap="round"/><line x1="-46" y1="2" x2="-46" y2="16.2" stroke="var(--color-fg)" stroke-width="1" stroke-linecap="round"/><path d="M18.8 0 C18.8 -2.6 17 -3.9 14 -4.4 L8.4 -4.9 L-12 -5.2 L-47.7 -1.3 L-47.7 1.3 L-12 5.2 L8.4 4.9 L14 4.4 C17 3.9 18.8 2.6 18.8 0 Z" stroke="var(--color-fg)" stroke-width="2" fill="var(--color-surface)" stroke-linecap="round" stroke-linejoin="round"/><line x1="-30" y1="0" x2="-51.4" y2="0" stroke="var(--color-fg)" stroke-width="2" stroke-linecap="round"/><path d="M7.4 -4.3 Q8.8 0 7.4 4.3 L4 4.9 L4 -4.9 Z" stroke="var(--color-fg)" stroke-width="1" fill="var(--color-surface-2)" stroke-linecap="round" stroke-linejoin="round"/><path d="M-12.7 -4.3 L-18.6 -2.4 L-18.6 2.4 L-12.7 4.3 Z" stroke="var(--color-fg)" stroke-width="1" fill="var(--color-surface-2)" stroke-linecap="round" stroke-linejoin="round"/><path d="M4 -24 L4 24 L-1.6 47.6 Q-2.3 50 -4.8 50 L-11 50 Q-12.7 50 -12.7 47.6 L-12.7 -47.6 Q-12.7 -50 -11 -50 L-4.8 -50 Q-2.3 -50 -1.6 -47.6 Z" stroke="var(--color-fg)" stroke-width="2" fill="var(--color-surface)" stroke-linecap="round" stroke-linejoin="round"/><line x1="-9.6" y1="-46" x2="-9.6" y2="-25" stroke="var(--color-fg)" stroke-width="1" stroke-linecap="round"/><line x1="-9.6" y1="25" x2="-9.6" y2="46" stroke="var(--color-fg)" stroke-width="1" stroke-linecap="round"/><path d="M18.6 -2 C20.2 -1.8 21.2 -0.9 21.2 0 C21.2 0.9 20.2 1.8 18.6 2 Z" stroke="var(--color-fg)" stroke-width="2" fill="var(--color-surface)" stroke-linecap="round" stroke-linejoin="round"/><line x1="19.3" y1="-8.6" x2="19.3" y2="8.6" stroke="var(--color-fg)" stroke-width="1.25" stroke-linecap="round"/></g>
<g transform="translate(284 122) rotate(74.93) scale(0.32)"><path d="M-37.6 -1.2 L-41.4 -16.7 L-50.8 -16.7 L-51.2 -1.2 Z M-37.6 1.2 L-41.4 16.7 L-50.8 16.7 L-51.2 1.2 Z" stroke="var(--color-bad)" stroke-width="2" fill="var(--color-surface)" stroke-linecap="round" stroke-linejoin="round"/><line x1="-46" y1="-2" x2="-46" y2="-16.2" stroke="var(--color-bad)" stroke-width="1" stroke-linecap="round"/><line x1="-46" y1="2" x2="-46" y2="16.2" stroke="var(--color-bad)" stroke-width="1" stroke-linecap="round"/><path d="M18.8 0 C18.8 -2.6 17 -3.9 14 -4.4 L8.4 -4.9 L-12 -5.2 L-47.7 -1.3 L-47.7 1.3 L-12 5.2 L8.4 4.9 L14 4.4 C17 3.9 18.8 2.6 18.8 0 Z" stroke="var(--color-bad)" stroke-width="2" fill="var(--color-surface)" stroke-linecap="round" stroke-linejoin="round"/><line x1="-30" y1="0" x2="-51.4" y2="0" stroke="var(--color-bad)" stroke-width="2" stroke-linecap="round"/><path d="M7.4 -4.3 Q8.8 0 7.4 4.3 L4 4.9 L4 -4.9 Z" stroke="var(--color-bad)" stroke-width="1" fill="var(--color-surface-2)" stroke-linecap="round" stroke-linejoin="round"/><path d="M-12.7 -4.3 L-18.6 -2.4 L-18.6 2.4 L-12.7 4.3 Z" stroke="var(--color-bad)" stroke-width="1" fill="var(--color-surface-2)" stroke-linecap="round" stroke-linejoin="round"/><path d="M4 -24 L4 24 L-1.6 47.6 Q-2.3 50 -4.8 50 L-11 50 Q-12.7 50 -12.7 47.6 L-12.7 -47.6 Q-12.7 -50 -11 -50 L-4.8 -50 Q-2.3 -50 -1.6 -47.6 Z" stroke="var(--color-bad)" stroke-width="2" fill="var(--color-surface)" stroke-linecap="round" stroke-linejoin="round"/><line x1="-9.6" y1="-46" x2="-9.6" y2="-25" stroke="var(--color-bad)" stroke-width="1" stroke-linecap="round"/><line x1="-9.6" y1="25" x2="-9.6" y2="46" stroke="var(--color-bad)" stroke-width="1" stroke-linecap="round"/><path d="M18.6 -2 C20.2 -1.8 21.2 -0.9 21.2 0 C21.2 0.9 20.2 1.8 18.6 2 Z" stroke="var(--color-bad)" stroke-width="2" fill="var(--color-surface)" stroke-linecap="round" stroke-linejoin="round"/><line x1="19.3" y1="-8.6" x2="19.3" y2="8.6" stroke="var(--color-bad)" stroke-width="1.25" stroke-linecap="round"/></g>
<text x="116" y="356" font-size="11" text-anchor="middle" fill="var(--color-fg-muted)" class="num">2</text>
<text x="302" y="126" font-size="11" fill="var(--color-bad)" class="num">2</text>
<g transform="translate(172 330) rotate(0) scale(0.32)"><path d="M-37.6 -1.2 L-41.4 -16.7 L-50.8 -16.7 L-51.2 -1.2 Z M-37.6 1.2 L-41.4 16.7 L-50.8 16.7 L-51.2 1.2 Z" stroke="var(--color-fg)" stroke-width="2" fill="var(--color-surface)" stroke-linecap="round" stroke-linejoin="round"/><line x1="-46" y1="-2" x2="-46" y2="-16.2" stroke="var(--color-fg)" stroke-width="1" stroke-linecap="round"/><line x1="-46" y1="2" x2="-46" y2="16.2" stroke="var(--color-fg)" stroke-width="1" stroke-linecap="round"/><path d="M18.8 0 C18.8 -2.6 17 -3.9 14 -4.4 L8.4 -4.9 L-12 -5.2 L-47.7 -1.3 L-47.7 1.3 L-12 5.2 L8.4 4.9 L14 4.4 C17 3.9 18.8 2.6 18.8 0 Z" stroke="var(--color-fg)" stroke-width="2" fill="var(--color-surface)" stroke-linecap="round" stroke-linejoin="round"/><line x1="-30" y1="0" x2="-51.4" y2="0" stroke="var(--color-fg)" stroke-width="2" stroke-linecap="round"/><path d="M7.4 -4.3 Q8.8 0 7.4 4.3 L4 4.9 L4 -4.9 Z" stroke="var(--color-fg)" stroke-width="1" fill="var(--color-surface-2)" stroke-linecap="round" stroke-linejoin="round"/><path d="M-12.7 -4.3 L-18.6 -2.4 L-18.6 2.4 L-12.7 4.3 Z" stroke="var(--color-fg)" stroke-width="1" fill="var(--color-surface-2)" stroke-linecap="round" stroke-linejoin="round"/><path d="M4 -24 L4 24 L-1.6 47.6 Q-2.3 50 -4.8 50 L-11 50 Q-12.7 50 -12.7 47.6 L-12.7 -47.6 Q-12.7 -50 -11 -50 L-4.8 -50 Q-2.3 -50 -1.6 -47.6 Z" stroke="var(--color-fg)" stroke-width="2" fill="var(--color-surface)" stroke-linecap="round" stroke-linejoin="round"/><line x1="-9.6" y1="-46" x2="-9.6" y2="-25" stroke="var(--color-fg)" stroke-width="1" stroke-linecap="round"/><line x1="-9.6" y1="25" x2="-9.6" y2="46" stroke="var(--color-fg)" stroke-width="1" stroke-linecap="round"/><path d="M18.6 -2 C20.2 -1.8 21.2 -0.9 21.2 0 C21.2 0.9 20.2 1.8 18.6 2 Z" stroke="var(--color-fg)" stroke-width="2" fill="var(--color-surface)" stroke-linecap="round" stroke-linejoin="round"/><line x1="19.3" y1="-8.6" x2="19.3" y2="8.6" stroke="var(--color-fg)" stroke-width="1.25" stroke-linecap="round"/></g>
<g transform="translate(298 174) rotate(74.93) scale(0.32)"><path d="M-37.6 -1.2 L-41.4 -16.7 L-50.8 -16.7 L-51.2 -1.2 Z M-37.6 1.2 L-41.4 16.7 L-50.8 16.7 L-51.2 1.2 Z" stroke="var(--color-bad)" stroke-width="2" fill="var(--color-surface)" stroke-linecap="round" stroke-linejoin="round"/><line x1="-46" y1="-2" x2="-46" y2="-16.2" stroke="var(--color-bad)" stroke-width="1" stroke-linecap="round"/><line x1="-46" y1="2" x2="-46" y2="16.2" stroke="var(--color-bad)" stroke-width="1" stroke-linecap="round"/><path d="M18.8 0 C18.8 -2.6 17 -3.9 14 -4.4 L8.4 -4.9 L-12 -5.2 L-47.7 -1.3 L-47.7 1.3 L-12 5.2 L8.4 4.9 L14 4.4 C17 3.9 18.8 2.6 18.8 0 Z" stroke="var(--color-bad)" stroke-width="2" fill="var(--color-surface)" stroke-linecap="round" stroke-linejoin="round"/><line x1="-30" y1="0" x2="-51.4" y2="0" stroke="var(--color-bad)" stroke-width="2" stroke-linecap="round"/><path d="M7.4 -4.3 Q8.8 0 7.4 4.3 L4 4.9 L4 -4.9 Z" stroke="var(--color-bad)" stroke-width="1" fill="var(--color-surface-2)" stroke-linecap="round" stroke-linejoin="round"/><path d="M-12.7 -4.3 L-18.6 -2.4 L-18.6 2.4 L-12.7 4.3 Z" stroke="var(--color-bad)" stroke-width="1" fill="var(--color-surface-2)" stroke-linecap="round" stroke-linejoin="round"/><path d="M4 -24 L4 24 L-1.6 47.6 Q-2.3 50 -4.8 50 L-11 50 Q-12.7 50 -12.7 47.6 L-12.7 -47.6 Q-12.7 -50 -11 -50 L-4.8 -50 Q-2.3 -50 -1.6 -47.6 Z" stroke="var(--color-bad)" stroke-width="2" fill="var(--color-surface)" stroke-linecap="round" stroke-linejoin="round"/><line x1="-9.6" y1="-46" x2="-9.6" y2="-25" stroke="var(--color-bad)" stroke-width="1" stroke-linecap="round"/><line x1="-9.6" y1="25" x2="-9.6" y2="46" stroke="var(--color-bad)" stroke-width="1" stroke-linecap="round"/><path d="M18.6 -2 C20.2 -1.8 21.2 -0.9 21.2 0 C21.2 0.9 20.2 1.8 18.6 2 Z" stroke="var(--color-bad)" stroke-width="2" fill="var(--color-surface)" stroke-linecap="round" stroke-linejoin="round"/><line x1="19.3" y1="-8.6" x2="19.3" y2="8.6" stroke="var(--color-bad)" stroke-width="1.25" stroke-linecap="round"/></g>
<text x="172" y="356" font-size="11" text-anchor="middle" fill="var(--color-fg-muted)" class="num">3</text>
<text x="316" y="178" font-size="11" fill="var(--color-bad)" class="num">3</text>
<g transform="translate(228 330) rotate(0) scale(0.32)"><path d="M-37.6 -1.2 L-41.4 -16.7 L-50.8 -16.7 L-51.2 -1.2 Z M-37.6 1.2 L-41.4 16.7 L-50.8 16.7 L-51.2 1.2 Z" stroke="var(--color-fg)" stroke-width="2" fill="var(--color-surface)" stroke-linecap="round" stroke-linejoin="round"/><line x1="-46" y1="-2" x2="-46" y2="-16.2" stroke="var(--color-fg)" stroke-width="1" stroke-linecap="round"/><line x1="-46" y1="2" x2="-46" y2="16.2" stroke="var(--color-fg)" stroke-width="1" stroke-linecap="round"/><path d="M18.8 0 C18.8 -2.6 17 -3.9 14 -4.4 L8.4 -4.9 L-12 -5.2 L-47.7 -1.3 L-47.7 1.3 L-12 5.2 L8.4 4.9 L14 4.4 C17 3.9 18.8 2.6 18.8 0 Z" stroke="var(--color-fg)" stroke-width="2" fill="var(--color-surface)" stroke-linecap="round" stroke-linejoin="round"/><line x1="-30" y1="0" x2="-51.4" y2="0" stroke="var(--color-fg)" stroke-width="2" stroke-linecap="round"/><path d="M7.4 -4.3 Q8.8 0 7.4 4.3 L4 4.9 L4 -4.9 Z" stroke="var(--color-fg)" stroke-width="1" fill="var(--color-surface-2)" stroke-linecap="round" stroke-linejoin="round"/><path d="M-12.7 -4.3 L-18.6 -2.4 L-18.6 2.4 L-12.7 4.3 Z" stroke="var(--color-fg)" stroke-width="1" fill="var(--color-surface-2)" stroke-linecap="round" stroke-linejoin="round"/><path d="M4 -24 L4 24 L-1.6 47.6 Q-2.3 50 -4.8 50 L-11 50 Q-12.7 50 -12.7 47.6 L-12.7 -47.6 Q-12.7 -50 -11 -50 L-4.8 -50 Q-2.3 -50 -1.6 -47.6 Z" stroke="var(--color-fg)" stroke-width="2" fill="var(--color-surface)" stroke-linecap="round" stroke-linejoin="round"/><line x1="-9.6" y1="-46" x2="-9.6" y2="-25" stroke="var(--color-fg)" stroke-width="1" stroke-linecap="round"/><line x1="-9.6" y1="25" x2="-9.6" y2="46" stroke="var(--color-fg)" stroke-width="1" stroke-linecap="round"/><path d="M18.6 -2 C20.2 -1.8 21.2 -0.9 21.2 0 C21.2 0.9 20.2 1.8 18.6 2 Z" stroke="var(--color-fg)" stroke-width="2" fill="var(--color-surface)" stroke-linecap="round" stroke-linejoin="round"/><line x1="19.3" y1="-8.6" x2="19.3" y2="8.6" stroke="var(--color-fg)" stroke-width="1.25" stroke-linecap="round"/></g>
<g transform="translate(312 226) rotate(74.93) scale(0.32)"><path d="M-37.6 -1.2 L-41.4 -16.7 L-50.8 -16.7 L-51.2 -1.2 Z M-37.6 1.2 L-41.4 16.7 L-50.8 16.7 L-51.2 1.2 Z" stroke="var(--color-bad)" stroke-width="2" fill="var(--color-surface)" stroke-linecap="round" stroke-linejoin="round"/><line x1="-46" y1="-2" x2="-46" y2="-16.2" stroke="var(--color-bad)" stroke-width="1" stroke-linecap="round"/><line x1="-46" y1="2" x2="-46" y2="16.2" stroke="var(--color-bad)" stroke-width="1" stroke-linecap="round"/><path d="M18.8 0 C18.8 -2.6 17 -3.9 14 -4.4 L8.4 -4.9 L-12 -5.2 L-47.7 -1.3 L-47.7 1.3 L-12 5.2 L8.4 4.9 L14 4.4 C17 3.9 18.8 2.6 18.8 0 Z" stroke="var(--color-bad)" stroke-width="2" fill="var(--color-surface)" stroke-linecap="round" stroke-linejoin="round"/><line x1="-30" y1="0" x2="-51.4" y2="0" stroke="var(--color-bad)" stroke-width="2" stroke-linecap="round"/><path d="M7.4 -4.3 Q8.8 0 7.4 4.3 L4 4.9 L4 -4.9 Z" stroke="var(--color-bad)" stroke-width="1" fill="var(--color-surface-2)" stroke-linecap="round" stroke-linejoin="round"/><path d="M-12.7 -4.3 L-18.6 -2.4 L-18.6 2.4 L-12.7 4.3 Z" stroke="var(--color-bad)" stroke-width="1" fill="var(--color-surface-2)" stroke-linecap="round" stroke-linejoin="round"/><path d="M4 -24 L4 24 L-1.6 47.6 Q-2.3 50 -4.8 50 L-11 50 Q-12.7 50 -12.7 47.6 L-12.7 -47.6 Q-12.7 -50 -11 -50 L-4.8 -50 Q-2.3 -50 -1.6 -47.6 Z" stroke="var(--color-bad)" stroke-width="2" fill="var(--color-surface)" stroke-linecap="round" stroke-linejoin="round"/><line x1="-9.6" y1="-46" x2="-9.6" y2="-25" stroke="var(--color-bad)" stroke-width="1" stroke-linecap="round"/><line x1="-9.6" y1="25" x2="-9.6" y2="46" stroke="var(--color-bad)" stroke-width="1" stroke-linecap="round"/><path d="M18.6 -2 C20.2 -1.8 21.2 -0.9 21.2 0 C21.2 0.9 20.2 1.8 18.6 2 Z" stroke="var(--color-bad)" stroke-width="2" fill="var(--color-surface)" stroke-linecap="round" stroke-linejoin="round"/><line x1="19.3" y1="-8.6" x2="19.3" y2="8.6" stroke="var(--color-bad)" stroke-width="1.25" stroke-linecap="round"/></g>
<text x="228" y="356" font-size="11" text-anchor="middle" fill="var(--color-fg-muted)" class="num">4</text>
<text x="330" y="230" font-size="11" fill="var(--color-bad)" class="num">4</text>
<g transform="translate(284 330) rotate(0) scale(0.32)"><path d="M-37.6 -1.2 L-41.4 -16.7 L-50.8 -16.7 L-51.2 -1.2 Z M-37.6 1.2 L-41.4 16.7 L-50.8 16.7 L-51.2 1.2 Z" stroke="var(--color-fg)" stroke-width="2" fill="var(--color-surface)" stroke-linecap="round" stroke-linejoin="round"/><line x1="-46" y1="-2" x2="-46" y2="-16.2" stroke="var(--color-fg)" stroke-width="1" stroke-linecap="round"/><line x1="-46" y1="2" x2="-46" y2="16.2" stroke="var(--color-fg)" stroke-width="1" stroke-linecap="round"/><path d="M18.8 0 C18.8 -2.6 17 -3.9 14 -4.4 L8.4 -4.9 L-12 -5.2 L-47.7 -1.3 L-47.7 1.3 L-12 5.2 L8.4 4.9 L14 4.4 C17 3.9 18.8 2.6 18.8 0 Z" stroke="var(--color-fg)" stroke-width="2" fill="var(--color-surface)" stroke-linecap="round" stroke-linejoin="round"/><line x1="-30" y1="0" x2="-51.4" y2="0" stroke="var(--color-fg)" stroke-width="2" stroke-linecap="round"/><path d="M7.4 -4.3 Q8.8 0 7.4 4.3 L4 4.9 L4 -4.9 Z" stroke="var(--color-fg)" stroke-width="1" fill="var(--color-surface-2)" stroke-linecap="round" stroke-linejoin="round"/><path d="M-12.7 -4.3 L-18.6 -2.4 L-18.6 2.4 L-12.7 4.3 Z" stroke="var(--color-fg)" stroke-width="1" fill="var(--color-surface-2)" stroke-linecap="round" stroke-linejoin="round"/><path d="M4 -24 L4 24 L-1.6 47.6 Q-2.3 50 -4.8 50 L-11 50 Q-12.7 50 -12.7 47.6 L-12.7 -47.6 Q-12.7 -50 -11 -50 L-4.8 -50 Q-2.3 -50 -1.6 -47.6 Z" stroke="var(--color-fg)" stroke-width="2" fill="var(--color-surface)" stroke-linecap="round" stroke-linejoin="round"/><line x1="-9.6" y1="-46" x2="-9.6" y2="-25" stroke="var(--color-fg)" stroke-width="1" stroke-linecap="round"/><line x1="-9.6" y1="25" x2="-9.6" y2="46" stroke="var(--color-fg)" stroke-width="1" stroke-linecap="round"/><path d="M18.6 -2 C20.2 -1.8 21.2 -0.9 21.2 0 C21.2 0.9 20.2 1.8 18.6 2 Z" stroke="var(--color-fg)" stroke-width="2" fill="var(--color-surface)" stroke-linecap="round" stroke-linejoin="round"/><line x1="19.3" y1="-8.6" x2="19.3" y2="8.6" stroke="var(--color-fg)" stroke-width="1.25" stroke-linecap="round"/></g>
<g transform="translate(326 278) rotate(74.93) scale(0.32)"><path d="M-37.6 -1.2 L-41.4 -16.7 L-50.8 -16.7 L-51.2 -1.2 Z M-37.6 1.2 L-41.4 16.7 L-50.8 16.7 L-51.2 1.2 Z" stroke="var(--color-bad)" stroke-width="2" fill="var(--color-surface)" stroke-linecap="round" stroke-linejoin="round"/><line x1="-46" y1="-2" x2="-46" y2="-16.2" stroke="var(--color-bad)" stroke-width="1" stroke-linecap="round"/><line x1="-46" y1="2" x2="-46" y2="16.2" stroke="var(--color-bad)" stroke-width="1" stroke-linecap="round"/><path d="M18.8 0 C18.8 -2.6 17 -3.9 14 -4.4 L8.4 -4.9 L-12 -5.2 L-47.7 -1.3 L-47.7 1.3 L-12 5.2 L8.4 4.9 L14 4.4 C17 3.9 18.8 2.6 18.8 0 Z" stroke="var(--color-bad)" stroke-width="2" fill="var(--color-surface)" stroke-linecap="round" stroke-linejoin="round"/><line x1="-30" y1="0" x2="-51.4" y2="0" stroke="var(--color-bad)" stroke-width="2" stroke-linecap="round"/><path d="M7.4 -4.3 Q8.8 0 7.4 4.3 L4 4.9 L4 -4.9 Z" stroke="var(--color-bad)" stroke-width="1" fill="var(--color-surface-2)" stroke-linecap="round" stroke-linejoin="round"/><path d="M-12.7 -4.3 L-18.6 -2.4 L-18.6 2.4 L-12.7 4.3 Z" stroke="var(--color-bad)" stroke-width="1" fill="var(--color-surface-2)" stroke-linecap="round" stroke-linejoin="round"/><path d="M4 -24 L4 24 L-1.6 47.6 Q-2.3 50 -4.8 50 L-11 50 Q-12.7 50 -12.7 47.6 L-12.7 -47.6 Q-12.7 -50 -11 -50 L-4.8 -50 Q-2.3 -50 -1.6 -47.6 Z" stroke="var(--color-bad)" stroke-width="2" fill="var(--color-surface)" stroke-linecap="round" stroke-linejoin="round"/><line x1="-9.6" y1="-46" x2="-9.6" y2="-25" stroke="var(--color-bad)" stroke-width="1" stroke-linecap="round"/><line x1="-9.6" y1="25" x2="-9.6" y2="46" stroke="var(--color-bad)" stroke-width="1" stroke-linecap="round"/><path d="M18.6 -2 C20.2 -1.8 21.2 -0.9 21.2 0 C21.2 0.9 20.2 1.8 18.6 2 Z" stroke="var(--color-bad)" stroke-width="2" fill="var(--color-surface)" stroke-linecap="round" stroke-linejoin="round"/><line x1="19.3" y1="-8.6" x2="19.3" y2="8.6" stroke="var(--color-bad)" stroke-width="1.25" stroke-linecap="round"/></g>
<text x="284" y="356" font-size="11" text-anchor="middle" fill="var(--color-fg-muted)" class="num">5</text>
<text x="344" y="282" font-size="11" fill="var(--color-bad)" class="num">5</text>
<circle cx="340" cy="330" r="7" fill="var(--color-bad-soft)" stroke="var(--color-bad)" stroke-width="2"/>
<text x="340" y="358" font-size="12" text-anchor="middle" fill="var(--color-bad)" font-weight="700">collision</text>
<text x="60" y="306" font-size="13" text-anchor="middle" fill="var(--color-fg)" font-weight="700">you</text>
<text x="248" y="74" font-size="13" text-anchor="end" fill="var(--color-bad)" font-weight="700">other</text>
<text x="160" y="152" font-size="12" text-anchor="end" fill="var(--color-brand)" font-weight="600">lines of sight stay</text><text x="160" y="167.6" font-size="12" text-anchor="end" fill="var(--color-brand)" font-weight="600">parallel: a constant</text><text x="160" y="183.2" font-size="12" text-anchor="end" fill="var(--color-brand)" font-weight="600">relative bearing</text>
<text x="408" y="36" font-size="14" fill="var(--color-fg)" font-weight="700">From your seat</text>
<path d="M408 70 Q516 52 624 70 L618 210 L414 210 Z" stroke="var(--color-fg)" stroke-width="2" fill="var(--color-sky-soft)" stroke-linecap="round" stroke-linejoin="round"/>
<line x1="516" y1="61" x2="516" y2="210" stroke="var(--color-fg)" stroke-width="4" stroke-linecap="round"/>
<line x1="414" y1="160" x2="424" y2="160" stroke="var(--color-fg-muted)" stroke-width="1" stroke-dasharray="4 3" stroke-linecap="round"/>
<line x1="504" y1="160" x2="618" y2="160" stroke="var(--color-fg-muted)" stroke-width="1" stroke-dasharray="4 3" stroke-linecap="round"/>
<text x="612" y="176" font-size="11" text-anchor="end" fill="var(--color-fg-muted)">horizon</text>
<g transform="translate(464 160) rotate(0) scale(0.7)"><rect x="-1.2" y="9.4" width="2.4" height="4.1" rx="1.2" fill="var(--color-bad)" stroke="none"/><line x1="-5" y1="5.2" x2="-24" y2="-5.4" stroke="var(--color-bad)" stroke-width="1.25" stroke-linecap="round"/><line x1="5" y1="5.2" x2="24" y2="-5.4" stroke="var(--color-bad)" stroke-width="1.25" stroke-linecap="round"/><line x1="-4.4" y1="8.2" x2="-10.6" y2="10.6" stroke="var(--color-bad)" stroke-width="1.25" stroke-linecap="round"/><line x1="4.4" y1="8.2" x2="10.6" y2="10.6" stroke="var(--color-bad)" stroke-width="1.25" stroke-linecap="round"/><rect x="-12.6" y="8.3" width="3" height="5.2" rx="1.5" fill="var(--color-bad)" stroke="none"/><rect x="9.6" y="8.3" width="3" height="5.2" rx="1.5" fill="var(--color-bad)" stroke="none"/><rect x="-5.2" y="-5.2" width="10.4" height="13.8" rx="3" fill="var(--color-bad-soft)" stroke="var(--color-bad)" stroke-width="2"/><path d="M-3.6 -3.6 L3.6 -3.6 L3.6 -0.6 L-3.6 -0.6 Z" stroke="var(--color-bad)" stroke-width="1" fill="var(--color-surface-2)" stroke-linecap="round" stroke-linejoin="round"/><path d="M-50 -9.3 L0 -8.9 L50 -9.3 L50 -6 L0 -5 L-50 -6 Z" stroke="var(--color-bad)" stroke-width="2" fill="var(--color-bad-soft)" stroke-linecap="round" stroke-linejoin="round"/><path d="M-16.7 1.2 L16.7 1.2 L16.7 3.8 L-16.7 3.8 Z" stroke="var(--color-bad)" stroke-width="2" fill="var(--color-bad-soft)" stroke-linecap="round" stroke-linejoin="round"/><path d="M-1.5 1.2 L-1 -13 L1 -13 L1.5 1.2 Z" stroke="var(--color-bad)" stroke-width="2" fill="var(--color-bad-soft)" stroke-linecap="round" stroke-linejoin="round"/></g>
<g transform="translate(464 160) rotate(0) scale(0.45)"><rect x="-1.2" y="9.4" width="2.4" height="4.1" rx="1.2" fill="var(--color-bad)" stroke="none"/><line x1="-5" y1="5.2" x2="-24" y2="-5.4" stroke="var(--color-bad)" stroke-width="1.25" stroke-linecap="round"/><line x1="5" y1="5.2" x2="24" y2="-5.4" stroke="var(--color-bad)" stroke-width="1.25" stroke-linecap="round"/><line x1="-4.4" y1="8.2" x2="-10.6" y2="10.6" stroke="var(--color-bad)" stroke-width="1.25" stroke-linecap="round"/><line x1="4.4" y1="8.2" x2="10.6" y2="10.6" stroke="var(--color-bad)" stroke-width="1.25" stroke-linecap="round"/><rect x="-12.6" y="8.3" width="3" height="5.2" rx="1.5" fill="var(--color-bad)" stroke="none"/><rect x="9.6" y="8.3" width="3" height="5.2" rx="1.5" fill="var(--color-bad)" stroke="none"/><rect x="-5.2" y="-5.2" width="10.4" height="13.8" rx="3" fill="var(--color-surface)" stroke="var(--color-bad)" stroke-width="2"/><path d="M-3.6 -3.6 L3.6 -3.6 L3.6 -0.6 L-3.6 -0.6 Z" stroke="var(--color-bad)" stroke-width="1" fill="var(--color-surface-2)" stroke-linecap="round" stroke-linejoin="round"/><path d="M-50 -9.3 L0 -8.9 L50 -9.3 L50 -6 L0 -5 L-50 -6 Z" stroke="var(--color-bad)" stroke-width="2" fill="var(--color-surface)" stroke-linecap="round" stroke-linejoin="round"/><path d="M-16.7 1.2 L16.7 1.2 L16.7 3.8 L-16.7 3.8 Z" stroke="var(--color-bad)" stroke-width="2" fill="var(--color-surface)" stroke-linecap="round" stroke-linejoin="round"/><path d="M-1.5 1.2 L-1 -13 L1 -13 L1.5 1.2 Z" stroke="var(--color-bad)" stroke-width="2" fill="var(--color-surface)" stroke-linecap="round" stroke-linejoin="round"/></g>
<g transform="translate(464 160) rotate(0) scale(0.25)"><rect x="-1.2" y="9.4" width="2.4" height="4.1" rx="1.2" fill="var(--color-bad)" stroke="none"/><line x1="-5" y1="5.2" x2="-24" y2="-5.4" stroke="var(--color-bad)" stroke-width="1.25" stroke-linecap="round"/><line x1="5" y1="5.2" x2="24" y2="-5.4" stroke="var(--color-bad)" stroke-width="1.25" stroke-linecap="round"/><line x1="-4.4" y1="8.2" x2="-10.6" y2="10.6" stroke="var(--color-bad)" stroke-width="1.25" stroke-linecap="round"/><line x1="4.4" y1="8.2" x2="10.6" y2="10.6" stroke="var(--color-bad)" stroke-width="1.25" stroke-linecap="round"/><rect x="-12.6" y="8.3" width="3" height="5.2" rx="1.5" fill="var(--color-bad)" stroke="none"/><rect x="9.6" y="8.3" width="3" height="5.2" rx="1.5" fill="var(--color-bad)" stroke="none"/><rect x="-5.2" y="-5.2" width="10.4" height="13.8" rx="3" fill="var(--color-surface)" stroke="var(--color-bad)" stroke-width="2"/><path d="M-3.6 -3.6 L3.6 -3.6 L3.6 -0.6 L-3.6 -0.6 Z" stroke="var(--color-bad)" stroke-width="1" fill="var(--color-surface-2)" stroke-linecap="round" stroke-linejoin="round"/><path d="M-50 -9.3 L0 -8.9 L50 -9.3 L50 -6 L0 -5 L-50 -6 Z" stroke="var(--color-bad)" stroke-width="2" fill="var(--color-surface)" stroke-linecap="round" stroke-linejoin="round"/><path d="M-16.7 1.2 L16.7 1.2 L16.7 3.8 L-16.7 3.8 Z" stroke="var(--color-bad)" stroke-width="2" fill="var(--color-surface)" stroke-linecap="round" stroke-linejoin="round"/><path d="M-1.5 1.2 L-1 -13 L1 -13 L1.5 1.2 Z" stroke="var(--color-bad)" stroke-width="2" fill="var(--color-surface)" stroke-linecap="round" stroke-linejoin="round"/></g>
<text x="424" y="192" font-size="11" fill="var(--color-bad)" font-weight="600">same spot,</text>
<text x="424" y="205" font-size="11" fill="var(--color-bad)" font-weight="600">just bigger</text>
<text x="408" y="236" font-size="13" fill="var(--color-fg)" font-weight="600">It stays in the same spot</text><text x="408" y="253.55" font-size="13" fill="var(--color-fg)" font-weight="600">and just grows, then</text><text x="408" y="271.1" font-size="13" fill="var(--color-fg)" font-weight="600">"blossoms" in the last</text><text x="408" y="288.65" font-size="13" fill="var(--color-fg)" font-weight="600">few seconds.</text>
<text x="408" y="318" font-size="12" fill="var(--color-fg-muted)">No movement means your</text><text x="408" y="334.2" font-size="12" fill="var(--color-fg-muted)">peripheral vision ignores it.</text><text x="408" y="350.4" font-size="12" fill="var(--color-fg-muted)">Traffic sliding across the</text><text x="408" y="366.6" font-size="12" fill="var(--color-fg-muted)">screen will pass ahead or behind.</text>
</svg>
