<!-- generated by tools/diagrams; do not edit, change the generator and run `python -m tools.diagrams.build` -->
<svg xmlns="http://www.w3.org/2000/svg" viewBox="0 0 640 400" role="img" data-prefix="cbc">
<title>A collision course does not move on the windscreen</title>
<desc>Plan view of two aircraft on converging tracks, shown at equal time intervals. The line of sight between them stays parallel to itself: a constant relative bearing. From the cockpit the other aircraft stays fixed on the windscreen and only grows, slowly at first and then very fast, so peripheral vision, which hunts for movement, does not notice it.</desc>
<defs><marker id="arrow" viewBox="0 0 8 8" refX="7" refY="4" markerWidth="5" markerHeight="5" orient="auto-start-reverse"><path d="M0 0 L8 4 L0 8 z" fill="context-stroke"/></marker></defs>
<rect x="16" y="14" width="380" height="372" rx="10" fill="var(--color-surface)" stroke="var(--color-line-strong)" stroke-width="1.25"/>
<text x="28" y="36" font-size="14" fill="var(--color-fg)" font-weight="700">From above: equal time steps</text>
<line x1="60" y1="330" x2="340" y2="330" stroke="var(--color-line-strong)" stroke-width="1" stroke-dasharray="4 3" stroke-linecap="round"/>
<line x1="270" y1="70" x2="340" y2="330" stroke="var(--color-line-strong)" stroke-width="1" stroke-dasharray="4 3" stroke-linecap="round"/>
<line x1="70" y1="330" x2="270" y2="80" stroke="var(--color-brand)" stroke-width="1.25" stroke-linecap="round" opacity="1.0"/>
<line x1="126" y1="330" x2="284" y2="132" stroke="var(--color-brand)" stroke-width="1.25" stroke-dasharray="4 3" stroke-linecap="round" opacity="0.88"/>
<line x1="182" y1="330" x2="298" y2="184" stroke="var(--color-brand)" stroke-width="1.25" stroke-dasharray="4 3" stroke-linecap="round" opacity="0.76"/>
<line x1="238" y1="330" x2="312" y2="236" stroke="var(--color-brand)" stroke-width="1.25" stroke-dasharray="4 3" stroke-linecap="round" opacity="0.64"/>
<line x1="294" y1="330" x2="326" y2="288" stroke="var(--color-brand)" stroke-width="1.25" stroke-dasharray="4 3" stroke-linecap="round" opacity="0.52"/>
<g transform="translate(60 330) rotate(0) scale(0.32)"><path d="M-23 -1.5 L-27 -15 L-32 -15 L-32 -2 Z M-23 1.5 L-27 15 L-32 15 L-32 2 Z" stroke="var(--color-fg)" stroke-width="2" fill="var(--color-surface)" stroke-linecap="round" stroke-linejoin="round"/><line x1="-20" y1="0" x2="-33" y2="0" stroke="var(--color-fg)" stroke-width="2" stroke-linecap="round"/><path d="M40 0 C40 -3 35 -5 29 -5.5 L12 -6 L-10 -5.5 L-30 -2 L-33 -1.2 L-33 1.2 L-30 2 L-10 5.5 L12 6 L29 5.5 C35 5 40 3 40 0 Z" stroke="var(--color-fg)" stroke-width="2" fill="var(--color-surface)" stroke-linecap="round" stroke-linejoin="round"/><path d="M19 -5.4 L11 -6 L11 6 L19 5.4 Z" stroke="var(--color-fg)" stroke-width="1" fill="var(--color-surface-2)" stroke-linecap="round" stroke-linejoin="round"/><line x1="7" y1="-5.5" x2="5" y2="-28" stroke="var(--color-fg)" stroke-width="1.25" stroke-linecap="round"/><line x1="7" y1="5.5" x2="5" y2="28" stroke="var(--color-fg)" stroke-width="1.25" stroke-linecap="round"/><path d="M11 -28 L11 28 L9 46 Q8 50 3 50 L-4 50 Q-6 50 -6 46 L-5 28 L-5 -28 L-6 -46 Q-6 -50 -4 -50 L3 -50 Q8 -50 9 -46 Z" stroke="var(--color-fg)" stroke-width="2" fill="var(--color-surface)" stroke-linecap="round" stroke-linejoin="round"/><line x1="-2" y1="-46" x2="-2" y2="-28" stroke="var(--color-fg)" stroke-width="1" stroke-linecap="round"/><line x1="-2" y1="28" x2="-2" y2="46" stroke="var(--color-fg)" stroke-width="1" stroke-linecap="round"/><path d="M40 -2 L44 0 L40 2 Z" stroke="var(--color-fg)" stroke-width="2" fill="var(--color-surface)" stroke-linecap="round" stroke-linejoin="round"/><line x1="42" y1="-12" x2="42" y2="12" stroke="var(--color-fg)" stroke-width="1.25" stroke-linecap="round"/></g>
<g transform="translate(270 70) rotate(74.93) scale(0.32)"><path d="M-23 -1.5 L-27 -15 L-32 -15 L-32 -2 Z M-23 1.5 L-27 15 L-32 15 L-32 2 Z" stroke="var(--color-bad)" stroke-width="2" fill="var(--color-surface)" stroke-linecap="round" stroke-linejoin="round"/><line x1="-20" y1="0" x2="-33" y2="0" stroke="var(--color-bad)" stroke-width="2" stroke-linecap="round"/><path d="M40 0 C40 -3 35 -5 29 -5.5 L12 -6 L-10 -5.5 L-30 -2 L-33 -1.2 L-33 1.2 L-30 2 L-10 5.5 L12 6 L29 5.5 C35 5 40 3 40 0 Z" stroke="var(--color-bad)" stroke-width="2" fill="var(--color-surface)" stroke-linecap="round" stroke-linejoin="round"/><path d="M19 -5.4 L11 -6 L11 6 L19 5.4 Z" stroke="var(--color-bad)" stroke-width="1" fill="var(--color-surface-2)" stroke-linecap="round" stroke-linejoin="round"/><line x1="7" y1="-5.5" x2="5" y2="-28" stroke="var(--color-bad)" stroke-width="1.25" stroke-linecap="round"/><line x1="7" y1="5.5" x2="5" y2="28" stroke="var(--color-bad)" stroke-width="1.25" stroke-linecap="round"/><path d="M11 -28 L11 28 L9 46 Q8 50 3 50 L-4 50 Q-6 50 -6 46 L-5 28 L-5 -28 L-6 -46 Q-6 -50 -4 -50 L3 -50 Q8 -50 9 -46 Z" stroke="var(--color-bad)" stroke-width="2" fill="var(--color-surface)" stroke-linecap="round" stroke-linejoin="round"/><line x1="-2" y1="-46" x2="-2" y2="-28" stroke="var(--color-bad)" stroke-width="1" stroke-linecap="round"/><line x1="-2" y1="28" x2="-2" y2="46" stroke="var(--color-bad)" stroke-width="1" stroke-linecap="round"/><path d="M40 -2 L44 0 L40 2 Z" stroke="var(--color-bad)" stroke-width="2" fill="var(--color-surface)" stroke-linecap="round" stroke-linejoin="round"/><line x1="42" y1="-12" x2="42" y2="12" stroke="var(--color-bad)" stroke-width="1.25" stroke-linecap="round"/></g>
<text x="60" y="356" font-size="11" text-anchor="middle" fill="var(--color-fg-muted)" class="num">1</text>
<text x="288" y="74" font-size="11" fill="var(--color-bad)" class="num">1</text>
<g transform="translate(116 330) rotate(0) scale(0.32)"><path d="M-23 -1.5 L-27 -15 L-32 -15 L-32 -2 Z M-23 1.5 L-27 15 L-32 15 L-32 2 Z" stroke="var(--color-fg)" stroke-width="2" fill="var(--color-surface)" stroke-linecap="round" stroke-linejoin="round"/><line x1="-20" y1="0" x2="-33" y2="0" stroke="var(--color-fg)" stroke-width="2" stroke-linecap="round"/><path d="M40 0 C40 -3 35 -5 29 -5.5 L12 -6 L-10 -5.5 L-30 -2 L-33 -1.2 L-33 1.2 L-30 2 L-10 5.5 L12 6 L29 5.5 C35 5 40 3 40 0 Z" stroke="var(--color-fg)" stroke-width="2" fill="var(--color-surface)" stroke-linecap="round" stroke-linejoin="round"/><path d="M19 -5.4 L11 -6 L11 6 L19 5.4 Z" stroke="var(--color-fg)" stroke-width="1" fill="var(--color-surface-2)" stroke-linecap="round" stroke-linejoin="round"/><line x1="7" y1="-5.5" x2="5" y2="-28" stroke="var(--color-fg)" stroke-width="1.25" stroke-linecap="round"/><line x1="7" y1="5.5" x2="5" y2="28" stroke="var(--color-fg)" stroke-width="1.25" stroke-linecap="round"/><path d="M11 -28 L11 28 L9 46 Q8 50 3 50 L-4 50 Q-6 50 -6 46 L-5 28 L-5 -28 L-6 -46 Q-6 -50 -4 -50 L3 -50 Q8 -50 9 -46 Z" stroke="var(--color-fg)" stroke-width="2" fill="var(--color-surface)" stroke-linecap="round" stroke-linejoin="round"/><line x1="-2" y1="-46" x2="-2" y2="-28" stroke="var(--color-fg)" stroke-width="1" stroke-linecap="round"/><line x1="-2" y1="28" x2="-2" y2="46" stroke="var(--color-fg)" stroke-width="1" stroke-linecap="round"/><path d="M40 -2 L44 0 L40 2 Z" stroke="var(--color-fg)" stroke-width="2" fill="var(--color-surface)" stroke-linecap="round" stroke-linejoin="round"/><line x1="42" y1="-12" x2="42" y2="12" stroke="var(--color-fg)" stroke-width="1.25" stroke-linecap="round"/></g>
<g transform="translate(284 122) rotate(74.93) scale(0.32)"><path d="M-23 -1.5 L-27 -15 L-32 -15 L-32 -2 Z M-23 1.5 L-27 15 L-32 15 L-32 2 Z" stroke="var(--color-bad)" stroke-width="2" fill="var(--color-surface)" stroke-linecap="round" stroke-linejoin="round"/><line x1="-20" y1="0" x2="-33" y2="0" stroke="var(--color-bad)" stroke-width="2" stroke-linecap="round"/><path d="M40 0 C40 -3 35 -5 29 -5.5 L12 -6 L-10 -5.5 L-30 -2 L-33 -1.2 L-33 1.2 L-30 2 L-10 5.5 L12 6 L29 5.5 C35 5 40 3 40 0 Z" stroke="var(--color-bad)" stroke-width="2" fill="var(--color-surface)" stroke-linecap="round" stroke-linejoin="round"/><path d="M19 -5.4 L11 -6 L11 6 L19 5.4 Z" stroke="var(--color-bad)" stroke-width="1" fill="var(--color-surface-2)" stroke-linecap="round" stroke-linejoin="round"/><line x1="7" y1="-5.5" x2="5" y2="-28" stroke="var(--color-bad)" stroke-width="1.25" stroke-linecap="round"/><line x1="7" y1="5.5" x2="5" y2="28" stroke="var(--color-bad)" stroke-width="1.25" stroke-linecap="round"/><path d="M11 -28 L11 28 L9 46 Q8 50 3 50 L-4 50 Q-6 50 -6 46 L-5 28 L-5 -28 L-6 -46 Q-6 -50 -4 -50 L3 -50 Q8 -50 9 -46 Z" stroke="var(--color-bad)" stroke-width="2" fill="var(--color-surface)" stroke-linecap="round" stroke-linejoin="round"/><line x1="-2" y1="-46" x2="-2" y2="-28" stroke="var(--color-bad)" stroke-width="1" stroke-linecap="round"/><line x1="-2" y1="28" x2="-2" y2="46" stroke="var(--color-bad)" stroke-width="1" stroke-linecap="round"/><path d="M40 -2 L44 0 L40 2 Z" stroke="var(--color-bad)" stroke-width="2" fill="var(--color-surface)" stroke-linecap="round" stroke-linejoin="round"/><line x1="42" y1="-12" x2="42" y2="12" stroke="var(--color-bad)" stroke-width="1.25" stroke-linecap="round"/></g>
<text x="116" y="356" font-size="11" text-anchor="middle" fill="var(--color-fg-muted)" class="num">2</text>
<text x="302" y="126" font-size="11" fill="var(--color-bad)" class="num">2</text>
<g transform="translate(172 330) rotate(0) scale(0.32)"><path d="M-23 -1.5 L-27 -15 L-32 -15 L-32 -2 Z M-23 1.5 L-27 15 L-32 15 L-32 2 Z" stroke="var(--color-fg)" stroke-width="2" fill="var(--color-surface)" stroke-linecap="round" stroke-linejoin="round"/><line x1="-20" y1="0" x2="-33" y2="0" stroke="var(--color-fg)" stroke-width="2" stroke-linecap="round"/><path d="M40 0 C40 -3 35 -5 29 -5.5 L12 -6 L-10 -5.5 L-30 -2 L-33 -1.2 L-33 1.2 L-30 2 L-10 5.5 L12 6 L29 5.5 C35 5 40 3 40 0 Z" stroke="var(--color-fg)" stroke-width="2" fill="var(--color-surface)" stroke-linecap="round" stroke-linejoin="round"/><path d="M19 -5.4 L11 -6 L11 6 L19 5.4 Z" stroke="var(--color-fg)" stroke-width="1" fill="var(--color-surface-2)" stroke-linecap="round" stroke-linejoin="round"/><line x1="7" y1="-5.5" x2="5" y2="-28" stroke="var(--color-fg)" stroke-width="1.25" stroke-linecap="round"/><line x1="7" y1="5.5" x2="5" y2="28" stroke="var(--color-fg)" stroke-width="1.25" stroke-linecap="round"/><path d="M11 -28 L11 28 L9 46 Q8 50 3 50 L-4 50 Q-6 50 -6 46 L-5 28 L-5 -28 L-6 -46 Q-6 -50 -4 -50 L3 -50 Q8 -50 9 -46 Z" stroke="var(--color-fg)" stroke-width="2" fill="var(--color-surface)" stroke-linecap="round" stroke-linejoin="round"/><line x1="-2" y1="-46" x2="-2" y2="-28" stroke="var(--color-fg)" stroke-width="1" stroke-linecap="round"/><line x1="-2" y1="28" x2="-2" y2="46" stroke="var(--color-fg)" stroke-width="1" stroke-linecap="round"/><path d="M40 -2 L44 0 L40 2 Z" stroke="var(--color-fg)" stroke-width="2" fill="var(--color-surface)" stroke-linecap="round" stroke-linejoin="round"/><line x1="42" y1="-12" x2="42" y2="12" stroke="var(--color-fg)" stroke-width="1.25" stroke-linecap="round"/></g>
<g transform="translate(298 174) rotate(74.93) scale(0.32)"><path d="M-23 -1.5 L-27 -15 L-32 -15 L-32 -2 Z M-23 1.5 L-27 15 L-32 15 L-32 2 Z" stroke="var(--color-bad)" stroke-width="2" fill="var(--color-surface)" stroke-linecap="round" stroke-linejoin="round"/><line x1="-20" y1="0" x2="-33" y2="0" stroke="var(--color-bad)" stroke-width="2" stroke-linecap="round"/><path d="M40 0 C40 -3 35 -5 29 -5.5 L12 -6 L-10 -5.5 L-30 -2 L-33 -1.2 L-33 1.2 L-30 2 L-10 5.5 L12 6 L29 5.5 C35 5 40 3 40 0 Z" stroke="var(--color-bad)" stroke-width="2" fill="var(--color-surface)" stroke-linecap="round" stroke-linejoin="round"/><path d="M19 -5.4 L11 -6 L11 6 L19 5.4 Z" stroke="var(--color-bad)" stroke-width="1" fill="var(--color-surface-2)" stroke-linecap="round" stroke-linejoin="round"/><line x1="7" y1="-5.5" x2="5" y2="-28" stroke="var(--color-bad)" stroke-width="1.25" stroke-linecap="round"/><line x1="7" y1="5.5" x2="5" y2="28" stroke="var(--color-bad)" stroke-width="1.25" stroke-linecap="round"/><path d="M11 -28 L11 28 L9 46 Q8 50 3 50 L-4 50 Q-6 50 -6 46 L-5 28 L-5 -28 L-6 -46 Q-6 -50 -4 -50 L3 -50 Q8 -50 9 -46 Z" stroke="var(--color-bad)" stroke-width="2" fill="var(--color-surface)" stroke-linecap="round" stroke-linejoin="round"/><line x1="-2" y1="-46" x2="-2" y2="-28" stroke="var(--color-bad)" stroke-width="1" stroke-linecap="round"/><line x1="-2" y1="28" x2="-2" y2="46" stroke="var(--color-bad)" stroke-width="1" stroke-linecap="round"/><path d="M40 -2 L44 0 L40 2 Z" stroke="var(--color-bad)" stroke-width="2" fill="var(--color-surface)" stroke-linecap="round" stroke-linejoin="round"/><line x1="42" y1="-12" x2="42" y2="12" stroke="var(--color-bad)" stroke-width="1.25" stroke-linecap="round"/></g>
<text x="172" y="356" font-size="11" text-anchor="middle" fill="var(--color-fg-muted)" class="num">3</text>
<text x="316" y="178" font-size="11" fill="var(--color-bad)" class="num">3</text>
<g transform="translate(228 330) rotate(0) scale(0.32)"><path d="M-23 -1.5 L-27 -15 L-32 -15 L-32 -2 Z M-23 1.5 L-27 15 L-32 15 L-32 2 Z" stroke="var(--color-fg)" stroke-width="2" fill="var(--color-surface)" stroke-linecap="round" stroke-linejoin="round"/><line x1="-20" y1="0" x2="-33" y2="0" stroke="var(--color-fg)" stroke-width="2" stroke-linecap="round"/><path d="M40 0 C40 -3 35 -5 29 -5.5 L12 -6 L-10 -5.5 L-30 -2 L-33 -1.2 L-33 1.2 L-30 2 L-10 5.5 L12 6 L29 5.5 C35 5 40 3 40 0 Z" stroke="var(--color-fg)" stroke-width="2" fill="var(--color-surface)" stroke-linecap="round" stroke-linejoin="round"/><path d="M19 -5.4 L11 -6 L11 6 L19 5.4 Z" stroke="var(--color-fg)" stroke-width="1" fill="var(--color-surface-2)" stroke-linecap="round" stroke-linejoin="round"/><line x1="7" y1="-5.5" x2="5" y2="-28" stroke="var(--color-fg)" stroke-width="1.25" stroke-linecap="round"/><line x1="7" y1="5.5" x2="5" y2="28" stroke="var(--color-fg)" stroke-width="1.25" stroke-linecap="round"/><path d="M11 -28 L11 28 L9 46 Q8 50 3 50 L-4 50 Q-6 50 -6 46 L-5 28 L-5 -28 L-6 -46 Q-6 -50 -4 -50 L3 -50 Q8 -50 9 -46 Z" stroke="var(--color-fg)" stroke-width="2" fill="var(--color-surface)" stroke-linecap="round" stroke-linejoin="round"/><line x1="-2" y1="-46" x2="-2" y2="-28" stroke="var(--color-fg)" stroke-width="1" stroke-linecap="round"/><line x1="-2" y1="28" x2="-2" y2="46" stroke="var(--color-fg)" stroke-width="1" stroke-linecap="round"/><path d="M40 -2 L44 0 L40 2 Z" stroke="var(--color-fg)" stroke-width="2" fill="var(--color-surface)" stroke-linecap="round" stroke-linejoin="round"/><line x1="42" y1="-12" x2="42" y2="12" stroke="var(--color-fg)" stroke-width="1.25" stroke-linecap="round"/></g>
<g transform="translate(312 226) rotate(74.93) scale(0.32)"><path d="M-23 -1.5 L-27 -15 L-32 -15 L-32 -2 Z M-23 1.5 L-27 15 L-32 15 L-32 2 Z" stroke="var(--color-bad)" stroke-width="2" fill="var(--color-surface)" stroke-linecap="round" stroke-linejoin="round"/><line x1="-20" y1="0" x2="-33" y2="0" stroke="var(--color-bad)" stroke-width="2" stroke-linecap="round"/><path d="M40 0 C40 -3 35 -5 29 -5.5 L12 -6 L-10 -5.5 L-30 -2 L-33 -1.2 L-33 1.2 L-30 2 L-10 5.5 L12 6 L29 5.5 C35 5 40 3 40 0 Z" stroke="var(--color-bad)" stroke-width="2" fill="var(--color-surface)" stroke-linecap="round" stroke-linejoin="round"/><path d="M19 -5.4 L11 -6 L11 6 L19 5.4 Z" stroke="var(--color-bad)" stroke-width="1" fill="var(--color-surface-2)" stroke-linecap="round" stroke-linejoin="round"/><line x1="7" y1="-5.5" x2="5" y2="-28" stroke="var(--color-bad)" stroke-width="1.25" stroke-linecap="round"/><line x1="7" y1="5.5" x2="5" y2="28" stroke="var(--color-bad)" stroke-width="1.25" stroke-linecap="round"/><path d="M11 -28 L11 28 L9 46 Q8 50 3 50 L-4 50 Q-6 50 -6 46 L-5 28 L-5 -28 L-6 -46 Q-6 -50 -4 -50 L3 -50 Q8 -50 9 -46 Z" stroke="var(--color-bad)" stroke-width="2" fill="var(--color-surface)" stroke-linecap="round" stroke-linejoin="round"/><line x1="-2" y1="-46" x2="-2" y2="-28" stroke="var(--color-bad)" stroke-width="1" stroke-linecap="round"/><line x1="-2" y1="28" x2="-2" y2="46" stroke="var(--color-bad)" stroke-width="1" stroke-linecap="round"/><path d="M40 -2 L44 0 L40 2 Z" stroke="var(--color-bad)" stroke-width="2" fill="var(--color-surface)" stroke-linecap="round" stroke-linejoin="round"/><line x1="42" y1="-12" x2="42" y2="12" stroke="var(--color-bad)" stroke-width="1.25" stroke-linecap="round"/></g>
<text x="228" y="356" font-size="11" text-anchor="middle" fill="var(--color-fg-muted)" class="num">4</text>
<text x="330" y="230" font-size="11" fill="var(--color-bad)" class="num">4</text>
<g transform="translate(284 330) rotate(0) scale(0.32)"><path d="M-23 -1.5 L-27 -15 L-32 -15 L-32 -2 Z M-23 1.5 L-27 15 L-32 15 L-32 2 Z" stroke="var(--color-fg)" stroke-width="2" fill="var(--color-surface)" stroke-linecap="round" stroke-linejoin="round"/><line x1="-20" y1="0" x2="-33" y2="0" stroke="var(--color-fg)" stroke-width="2" stroke-linecap="round"/><path d="M40 0 C40 -3 35 -5 29 -5.5 L12 -6 L-10 -5.5 L-30 -2 L-33 -1.2 L-33 1.2 L-30 2 L-10 5.5 L12 6 L29 5.5 C35 5 40 3 40 0 Z" stroke="var(--color-fg)" stroke-width="2" fill="var(--color-surface)" stroke-linecap="round" stroke-linejoin="round"/><path d="M19 -5.4 L11 -6 L11 6 L19 5.4 Z" stroke="var(--color-fg)" stroke-width="1" fill="var(--color-surface-2)" stroke-linecap="round" stroke-linejoin="round"/><line x1="7" y1="-5.5" x2="5" y2="-28" stroke="var(--color-fg)" stroke-width="1.25" stroke-linecap="round"/><line x1="7" y1="5.5" x2="5" y2="28" stroke="var(--color-fg)" stroke-width="1.25" stroke-linecap="round"/><path d="M11 -28 L11 28 L9 46 Q8 50 3 50 L-4 50 Q-6 50 -6 46 L-5 28 L-5 -28 L-6 -46 Q-6 -50 -4 -50 L3 -50 Q8 -50 9 -46 Z" stroke="var(--color-fg)" stroke-width="2" fill="var(--color-surface)" stroke-linecap="round" stroke-linejoin="round"/><line x1="-2" y1="-46" x2="-2" y2="-28" stroke="var(--color-fg)" stroke-width="1" stroke-linecap="round"/><line x1="-2" y1="28" x2="-2" y2="46" stroke="var(--color-fg)" stroke-width="1" stroke-linecap="round"/><path d="M40 -2 L44 0 L40 2 Z" stroke="var(--color-fg)" stroke-width="2" fill="var(--color-surface)" stroke-linecap="round" stroke-linejoin="round"/><line x1="42" y1="-12" x2="42" y2="12" stroke="var(--color-fg)" stroke-width="1.25" stroke-linecap="round"/></g>
<g transform="translate(326 278) rotate(74.93) scale(0.32)"><path d="M-23 -1.5 L-27 -15 L-32 -15 L-32 -2 Z M-23 1.5 L-27 15 L-32 15 L-32 2 Z" stroke="var(--color-bad)" stroke-width="2" fill="var(--color-surface)" stroke-linecap="round" stroke-linejoin="round"/><line x1="-20" y1="0" x2="-33" y2="0" stroke="var(--color-bad)" stroke-width="2" stroke-linecap="round"/><path d="M40 0 C40 -3 35 -5 29 -5.5 L12 -6 L-10 -5.5 L-30 -2 L-33 -1.2 L-33 1.2 L-30 2 L-10 5.5 L12 6 L29 5.5 C35 5 40 3 40 0 Z" stroke="var(--color-bad)" stroke-width="2" fill="var(--color-surface)" stroke-linecap="round" stroke-linejoin="round"/><path d="M19 -5.4 L11 -6 L11 6 L19 5.4 Z" stroke="var(--color-bad)" stroke-width="1" fill="var(--color-surface-2)" stroke-linecap="round" stroke-linejoin="round"/><line x1="7" y1="-5.5" x2="5" y2="-28" stroke="var(--color-bad)" stroke-width="1.25" stroke-linecap="round"/><line x1="7" y1="5.5" x2="5" y2="28" stroke="var(--color-bad)" stroke-width="1.25" stroke-linecap="round"/><path d="M11 -28 L11 28 L9 46 Q8 50 3 50 L-4 50 Q-6 50 -6 46 L-5 28 L-5 -28 L-6 -46 Q-6 -50 -4 -50 L3 -50 Q8 -50 9 -46 Z" stroke="var(--color-bad)" stroke-width="2" fill="var(--color-surface)" stroke-linecap="round" stroke-linejoin="round"/><line x1="-2" y1="-46" x2="-2" y2="-28" stroke="var(--color-bad)" stroke-width="1" stroke-linecap="round"/><line x1="-2" y1="28" x2="-2" y2="46" stroke="var(--color-bad)" stroke-width="1" stroke-linecap="round"/><path d="M40 -2 L44 0 L40 2 Z" stroke="var(--color-bad)" stroke-width="2" fill="var(--color-surface)" stroke-linecap="round" stroke-linejoin="round"/><line x1="42" y1="-12" x2="42" y2="12" stroke="var(--color-bad)" stroke-width="1.25" stroke-linecap="round"/></g>
<text x="284" y="356" font-size="11" text-anchor="middle" fill="var(--color-fg-muted)" class="num">5</text>
<text x="344" y="282" font-size="11" fill="var(--color-bad)" class="num">5</text>
<circle cx="340" cy="330" r="7" fill="var(--color-bad-soft)" stroke="var(--color-bad)" stroke-width="2"/>
<text x="340" y="358" font-size="12" text-anchor="middle" fill="var(--color-bad)" font-weight="700">collision</text>
<text x="60" y="306" font-size="13" text-anchor="middle" fill="var(--color-fg)" font-weight="700">you</text>
<text x="248" y="74" font-size="13" text-anchor="end" fill="var(--color-bad)" font-weight="700">other</text>
<text x="160" y="152" font-size="12" text-anchor="end" fill="var(--color-brand)" font-weight="600">lines of sight stay</text><text x="160" y="167.6" font-size="12" text-anchor="end" fill="var(--color-brand)" font-weight="600">parallel: a constant</text><text x="160" y="183.2" font-size="12" text-anchor="end" fill="var(--color-brand)" font-weight="600">relative bearing</text>
<text x="408" y="36" font-size="14" fill="var(--color-fg)" font-weight="700">From your seat</text>
<path d="M408 70 Q516 52 624 70 L618 210 L414 210 Z" stroke="var(--color-fg)" stroke-width="2" fill="var(--color-sky-soft)" stroke-linecap="round" stroke-linejoin="round"/>
<line x1="516" y1="61" x2="516" y2="210" stroke="var(--color-fg)" stroke-width="4" stroke-linecap="round"/>
<line x1="414" y1="160" x2="424" y2="160" stroke="var(--color-fg-muted)" stroke-width="1" stroke-dasharray="4 3" stroke-linecap="round"/>
<line x1="504" y1="160" x2="618" y2="160" stroke="var(--color-fg-muted)" stroke-width="1" stroke-dasharray="4 3" stroke-linecap="round"/>
<text x="612" y="176" font-size="11" text-anchor="end" fill="var(--color-fg-muted)">horizon</text>
<g transform="translate(464 160) rotate(0) scale(0.7)"><path d="M-50 -21.5 L0 -20 L50 -21.5 L50 -18 L0 -16.5 L-50 -18 Z" stroke="var(--color-bad)" stroke-width="2" fill="var(--color-bad-soft)" stroke-linecap="round" stroke-linejoin="round"/><line x1="-5" y1="5" x2="-28" y2="-18" stroke="var(--color-bad)" stroke-width="1.25" stroke-linecap="round"/><line x1="5" y1="5" x2="28" y2="-18" stroke="var(--color-bad)" stroke-width="1.25" stroke-linecap="round"/><circle cx="0" cy="14.5" r="2.5" fill="var(--color-bad)" stroke="none"/><rect x="-7" y="-16.5" width="14" height="24" rx="4" fill="var(--color-bad-soft)" stroke="var(--color-bad)" stroke-width="2"/><path d="M-5 -14 L5 -14 L5 -8 L-5 -8 Z" stroke="var(--color-bad)" stroke-width="1" fill="var(--color-surface-2)" stroke-linecap="round" stroke-linejoin="round"/><line x1="-4" y1="7" x2="-9" y2="12" stroke="var(--color-bad)" stroke-width="1.25" stroke-linecap="round"/><line x1="4" y1="7" x2="9" y2="12" stroke="var(--color-bad)" stroke-width="1.25" stroke-linecap="round"/><circle cx="-9" cy="14" r="3" fill="var(--color-bad)" stroke="none"/><circle cx="9" cy="14" r="3" fill="var(--color-bad)" stroke="none"/><path d="M-15 1.5 L15 1.5 L15 4.5 L-15 4.5 Z" stroke="var(--color-bad)" stroke-width="2" fill="var(--color-bad-soft)" stroke-linecap="round" stroke-linejoin="round"/><path d="M-1.5 -16.5 L-0.5 -34 L2 -34 L2.8 -16.5 Z" stroke="var(--color-bad)" stroke-width="2" fill="var(--color-bad-soft)" stroke-linecap="round" stroke-linejoin="round"/></g>
<g transform="translate(464 160) rotate(0) scale(0.45)"><path d="M-50 -21.5 L0 -20 L50 -21.5 L50 -18 L0 -16.5 L-50 -18 Z" stroke="var(--color-bad)" stroke-width="2" fill="var(--color-surface)" stroke-linecap="round" stroke-linejoin="round"/><line x1="-5" y1="5" x2="-28" y2="-18" stroke="var(--color-bad)" stroke-width="1.25" stroke-linecap="round"/><line x1="5" y1="5" x2="28" y2="-18" stroke="var(--color-bad)" stroke-width="1.25" stroke-linecap="round"/><circle cx="0" cy="14.5" r="2.5" fill="var(--color-bad)" stroke="none"/><rect x="-7" y="-16.5" width="14" height="24" rx="4" fill="var(--color-surface)" stroke="var(--color-bad)" stroke-width="2"/><path d="M-5 -14 L5 -14 L5 -8 L-5 -8 Z" stroke="var(--color-bad)" stroke-width="1" fill="var(--color-surface-2)" stroke-linecap="round" stroke-linejoin="round"/><line x1="-4" y1="7" x2="-9" y2="12" stroke="var(--color-bad)" stroke-width="1.25" stroke-linecap="round"/><line x1="4" y1="7" x2="9" y2="12" stroke="var(--color-bad)" stroke-width="1.25" stroke-linecap="round"/><circle cx="-9" cy="14" r="3" fill="var(--color-bad)" stroke="none"/><circle cx="9" cy="14" r="3" fill="var(--color-bad)" stroke="none"/><path d="M-15 1.5 L15 1.5 L15 4.5 L-15 4.5 Z" stroke="var(--color-bad)" stroke-width="2" fill="var(--color-surface)" stroke-linecap="round" stroke-linejoin="round"/><path d="M-1.5 -16.5 L-0.5 -34 L2 -34 L2.8 -16.5 Z" stroke="var(--color-bad)" stroke-width="2" fill="var(--color-surface)" stroke-linecap="round" stroke-linejoin="round"/></g>
<g transform="translate(464 160) rotate(0) scale(0.25)"><path d="M-50 -21.5 L0 -20 L50 -21.5 L50 -18 L0 -16.5 L-50 -18 Z" stroke="var(--color-bad)" stroke-width="2" fill="var(--color-surface)" stroke-linecap="round" stroke-linejoin="round"/><line x1="-5" y1="5" x2="-28" y2="-18" stroke="var(--color-bad)" stroke-width="1.25" stroke-linecap="round"/><line x1="5" y1="5" x2="28" y2="-18" stroke="var(--color-bad)" stroke-width="1.25" stroke-linecap="round"/><circle cx="0" cy="14.5" r="2.5" fill="var(--color-bad)" stroke="none"/><rect x="-7" y="-16.5" width="14" height="24" rx="4" fill="var(--color-surface)" stroke="var(--color-bad)" stroke-width="2"/><path d="M-5 -14 L5 -14 L5 -8 L-5 -8 Z" stroke="var(--color-bad)" stroke-width="1" fill="var(--color-surface-2)" stroke-linecap="round" stroke-linejoin="round"/><line x1="-4" y1="7" x2="-9" y2="12" stroke="var(--color-bad)" stroke-width="1.25" stroke-linecap="round"/><line x1="4" y1="7" x2="9" y2="12" stroke="var(--color-bad)" stroke-width="1.25" stroke-linecap="round"/><circle cx="-9" cy="14" r="3" fill="var(--color-bad)" stroke="none"/><circle cx="9" cy="14" r="3" fill="var(--color-bad)" stroke="none"/><path d="M-15 1.5 L15 1.5 L15 4.5 L-15 4.5 Z" stroke="var(--color-bad)" stroke-width="2" fill="var(--color-surface)" stroke-linecap="round" stroke-linejoin="round"/><path d="M-1.5 -16.5 L-0.5 -34 L2 -34 L2.8 -16.5 Z" stroke="var(--color-bad)" stroke-width="2" fill="var(--color-surface)" stroke-linecap="round" stroke-linejoin="round"/></g>
<text x="424" y="192" font-size="11" fill="var(--color-bad)" font-weight="600">same spot,</text>
<text x="424" y="205" font-size="11" fill="var(--color-bad)" font-weight="600">just bigger</text>
<text x="408" y="236" font-size="13" fill="var(--color-fg)" font-weight="600">It stays in the same spot</text><text x="408" y="253.55" font-size="13" fill="var(--color-fg)" font-weight="600">and just grows, then</text><text x="408" y="271.1" font-size="13" fill="var(--color-fg)" font-weight="600">"blossoms" in the last</text><text x="408" y="288.65" font-size="13" fill="var(--color-fg)" font-weight="600">few seconds.</text>
<text x="408" y="318" font-size="12" fill="var(--color-fg-muted)">No movement means your</text><text x="408" y="334.2" font-size="12" fill="var(--color-fg-muted)">peripheral vision ignores it.</text><text x="408" y="350.4" font-size="12" fill="var(--color-fg-muted)">Traffic sliding across the</text><text x="408" y="366.6" font-size="12" fill="var(--color-fg-muted)">screen will pass ahead or behind.</text>
</svg>
