<!-- generated by tools/diagrams; do not edit, change the generator and run `python -m tools.diagrams.build` -->
<svg xmlns="http://www.w3.org/2000/svg" viewBox="0 0 640 470" role="img" data-prefix="dth">
<title>A displaced threshold</title>
<desc>Plan and side view of the worked example: a 1,250 m runway whose northern threshold is displaced 220 m because of power poles under the approach. White arrows along the centreline lead to a white transverse bar; the threshold markings start at the bar. Landing towards the south you touch down beyond the bar, so 1,030 m is available for landing. The arrowed section may be used for the take-off run and for the roll-out after landing in the other direction, so the full 1,250 m is available for take-off. The side view shows that an approach to the bar clears the poles, while an approach aimed at the pavement's end would not.</desc>
<defs><marker id="arrow" viewBox="0 0 8 8" refX="7" refY="4" markerWidth="5" markerHeight="5" orient="auto-start-reverse"><path d="M0 0 L8 4 L0 8 z" fill="context-stroke"/></marker></defs>
<text x="20" y="28" font-size="15" fill="var(--color-fg)" font-weight="700">Worked example: 1,250 m runway, threshold displaced 220 m</text>
<line x1="612" y1="40" x2="580" y2="40" stroke="var(--color-fg-muted)" stroke-width="1.25" stroke-linecap="round" marker-end="url(#arrow)"/>
<text x="572" y="44" font-size="12" text-anchor="end" fill="var(--color-fg-muted)" font-weight="700">N</text>
<rect x="110" y="84" width="500" height="54" rx="2" fill="var(--color-tarmac)" stroke="none"/>
<line x1="112" y1="87" x2="608" y2="87" stroke="var(--color-paint)" stroke-width="1.5" stroke-linecap="butt"/>
<line x1="112" y1="135" x2="608" y2="135" stroke="var(--color-paint)" stroke-width="1.5" stroke-linecap="butt"/>
<rect x="118" y="109" width="13" height="4" fill="var(--color-paint)" stroke="none"/><polygon points="129,104 140,111 129,118" fill="var(--color-paint)" stroke="none" stroke-linejoin="round"/>
<rect x="146" y="109" width="13" height="4" fill="var(--color-paint)" stroke="none"/><polygon points="157,104 168,111 157,118" fill="var(--color-paint)" stroke="none" stroke-linejoin="round"/>
<rect x="174" y="109" width="13" height="4" fill="var(--color-paint)" stroke="none"/><polygon points="185,104 196,111 185,118" fill="var(--color-paint)" stroke="none" stroke-linejoin="round"/>
<rect x="195" y="88" width="6" height="46" fill="var(--color-paint)" stroke="none"/>
<rect x="206" y="91" width="22" height="5" fill="var(--color-paint)" stroke="none"/>
<rect x="580" y="91" width="22" height="5" fill="var(--color-paint)" stroke="none"/>
<rect x="206" y="100" width="22" height="5" fill="var(--color-paint)" stroke="none"/>
<rect x="580" y="100" width="22" height="5" fill="var(--color-paint)" stroke="none"/>
<rect x="206" y="109" width="22" height="5" fill="var(--color-paint)" stroke="none"/>
<rect x="580" y="109" width="22" height="5" fill="var(--color-paint)" stroke="none"/>
<rect x="206" y="118" width="22" height="5" fill="var(--color-paint)" stroke="none"/>
<rect x="580" y="118" width="22" height="5" fill="var(--color-paint)" stroke="none"/>
<rect x="206" y="127" width="22" height="5" fill="var(--color-paint)" stroke="none"/>
<rect x="580" y="127" width="22" height="5" fill="var(--color-paint)" stroke="none"/>
<rect x="242" y="109.5" width="16" height="3" fill="var(--color-paint)" stroke="none"/>
<rect x="272" y="109.5" width="16" height="3" fill="var(--color-paint)" stroke="none"/>
<rect x="302" y="109.5" width="16" height="3" fill="var(--color-paint)" stroke="none"/>
<rect x="332" y="109.5" width="16" height="3" fill="var(--color-paint)" stroke="none"/>
<rect x="362" y="109.5" width="16" height="3" fill="var(--color-paint)" stroke="none"/>
<rect x="392" y="109.5" width="16" height="3" fill="var(--color-paint)" stroke="none"/>
<rect x="422" y="109.5" width="16" height="3" fill="var(--color-paint)" stroke="none"/>
<rect x="452" y="109.5" width="16" height="3" fill="var(--color-paint)" stroke="none"/>
<rect x="482" y="109.5" width="16" height="3" fill="var(--color-paint)" stroke="none"/>
<rect x="512" y="109.5" width="16" height="3" fill="var(--color-paint)" stroke="none"/>
<rect x="542" y="109.5" width="16" height="3" fill="var(--color-paint)" stroke="none"/>
<circle cx="70" cy="90" r="4" fill="var(--color-fg)" stroke="var(--color-surface)" stroke-width="1.5"/>
<circle cx="70" cy="111" r="4" fill="var(--color-fg)" stroke="var(--color-surface)" stroke-width="1.5"/>
<circle cx="70" cy="132" r="4" fill="var(--color-fg)" stroke="var(--color-surface)" stroke-width="1.5"/>
<line x1="70" y1="80" x2="70" y2="142" stroke="var(--color-fg-muted)" stroke-width="1" stroke-linecap="round"/>
<text x="70" y="160" font-size="12" text-anchor="middle" fill="var(--color-fg-muted)">poles</text>
<text x="192" y="72" font-size="12.5" text-anchor="end" fill="var(--color-fg)" font-weight="700">arrows: “roll on me”</text>
<text x="204" y="72" font-size="12.5" fill="var(--color-brand-fg)" font-weight="700">bar: touch down only past here</text>
<line x1="110" y1="171" x2="110" y2="185" stroke="var(--color-warn)" stroke-width="1.25" stroke-linecap="round"/><line x1="198" y1="171" x2="198" y2="185" stroke="var(--color-warn)" stroke-width="1.25" stroke-linecap="round"/><line x1="154" y1="178" x2="111" y2="178" stroke="var(--color-warn)" stroke-width="1.25" stroke-linecap="round" marker-end="url(#arrow)"/><line x1="154" y1="178" x2="197" y2="178" stroke="var(--color-warn)" stroke-width="1.25" stroke-linecap="round" marker-end="url(#arrow)"/>
<text x="154" y="198" font-size="13" text-anchor="middle" fill="var(--color-warn-fg)" font-weight="700" class="num">220 m</text>
<line x1="198" y1="171" x2="198" y2="185" stroke="var(--color-brand)" stroke-width="1.25" stroke-linecap="round"/><line x1="610" y1="171" x2="610" y2="185" stroke="var(--color-brand)" stroke-width="1.25" stroke-linecap="round"/><line x1="404" y1="178" x2="199" y2="178" stroke="var(--color-brand)" stroke-width="1.25" stroke-linecap="round" marker-end="url(#arrow)"/><line x1="404" y1="178" x2="609" y2="178" stroke="var(--color-brand)" stroke-width="1.25" stroke-linecap="round" marker-end="url(#arrow)"/>
<text x="404" y="198" font-size="13" text-anchor="middle" fill="var(--color-brand-fg)" font-weight="700">landing towards the south: 1,250 − 220 = 1,030 m</text>
<line x1="110" y1="217" x2="110" y2="231" stroke="var(--color-ok)" stroke-width="1.25" stroke-linecap="round"/><line x1="610" y1="217" x2="610" y2="231" stroke="var(--color-ok)" stroke-width="1.25" stroke-linecap="round"/><line x1="360" y1="224" x2="111" y2="224" stroke="var(--color-ok)" stroke-width="1.25" stroke-linecap="round" marker-end="url(#arrow)"/><line x1="360" y1="224" x2="609" y2="224" stroke="var(--color-ok)" stroke-width="1.25" stroke-linecap="round" marker-end="url(#arrow)"/>
<text x="360" y="244" font-size="13" text-anchor="middle" fill="var(--color-ok-fg)" font-weight="700">take-off run, and roll-out after landing north: full 1,250 m</text>
<line x1="20" y1="292" x2="620" y2="292" stroke="var(--color-line)" stroke-width="1" stroke-linecap="round"/>
<text x="20" y="318" font-size="13" fill="var(--color-fg)" font-weight="700">Side view: why the threshold moved</text>
<line x1="20" y1="440" x2="620" y2="440" stroke="var(--color-fg-muted)" stroke-width="1.25" stroke-linecap="round"/>
<rect x="110" y="436" width="500" height="4" fill="var(--color-tarmac)" stroke="none"/>
<line x1="70" y1="440" x2="70" y2="384" stroke="var(--color-fg)" stroke-width="3" stroke-linecap="round"/>
<line x1="61" y1="390" x2="79" y2="390" stroke="var(--color-fg)" stroke-width="2" stroke-linecap="round"/>
<line x1="20" y1="339" x2="222" y2="440" stroke="var(--color-brand)" stroke-width="2" stroke-dasharray="8 5" stroke-linecap="round"/>
<circle cx="222" cy="440" r="4" fill="var(--color-brand)" stroke="var(--color-surface)" stroke-width="1.5"/>
<line x1="20" y1="395" x2="111" y2="440" stroke="var(--color-bad)" stroke-width="1.25" stroke-dasharray="4 3" stroke-linecap="round"/>
<circle cx="70" cy="420" r="4" fill="var(--color-bad)" stroke="var(--color-surface)" stroke-width="1.5"/>
<g transform="translate(150 392) rotate(10) scale(0.3)"><path d="M-40 1 L-58 2 L-58 5 L-38 5 Z" stroke="var(--color-fg)" stroke-width="2" fill="var(--color-surface)" stroke-linecap="round" stroke-linejoin="round"/><path d="M-29 -4 L-39 -26 L-47 -26 L-48 -3 Z" stroke="var(--color-fg)" stroke-width="2" fill="var(--color-surface)" stroke-linecap="round" stroke-linejoin="round"/><path d="M50 0 C50 -4 46 -7 40 -8 L8 -10 C-4 -10 -22 -7 -40 -4 L-48 -3 L-48 3 L-40 4 C-22 6 -4 7 8 7 L42 6 C47 5 50 4 50 0 Z" stroke="var(--color-fg)" stroke-width="2" fill="var(--color-surface)" stroke-linecap="round" stroke-linejoin="round"/><path d="M18 2 C14 -1 -6 -1 -12 2 L-16 7 L14 7 C18 6 20 4 18 2 Z" stroke="var(--color-fg)" stroke-width="2" fill="var(--color-surface)" stroke-linecap="round" stroke-linejoin="round"/><path d="M18 -9 L30 -9 L35 -5 L14 -5 Z" stroke="var(--color-fg)" stroke-width="1" fill="var(--color-surface-2)" stroke-linecap="round" stroke-linejoin="round"/><path d="M50 -3 L57 0 L50 3 Z" stroke="var(--color-fg)" stroke-width="2" fill="var(--color-surface)" stroke-linecap="round" stroke-linejoin="round"/><line x1="55" y1="-16" x2="55" y2="16" stroke="var(--color-fg)" stroke-width="1.25" stroke-linecap="round"/><line x1="10" y1="7" x2="10" y2="13" stroke="var(--color-fg)" stroke-width="1.25" stroke-linecap="round"/><circle cx="10" cy="15" r="3.5" fill="var(--color-fg)" stroke="none"/><line x1="38" y1="6" x2="38" y2="12" stroke="var(--color-fg)" stroke-width="1.25" stroke-linecap="round"/><circle cx="38" cy="14" r="3" fill="var(--color-fg)" stroke="none"/></g>
<line x1="280" y1="356" x2="310" y2="356" stroke="var(--color-brand)" stroke-width="2" stroke-dasharray="8 5" stroke-linecap="round"/>
<text x="320" y="360" font-size="12.5" fill="var(--color-brand-fg)" font-weight="700">approach to the bar clears the poles</text>
<line x1="280" y1="382" x2="310" y2="382" stroke="var(--color-bad)" stroke-width="1.25" stroke-dasharray="4 3" stroke-linecap="round"/>
<text x="320" y="386" font-size="12.5" fill="var(--color-bad-fg)" font-weight="700">approach to the pavement's end: too low</text>
<text x="620" y="462" font-size="11" text-anchor="end" fill="var(--color-fg-faint)">heights exaggerated, not to scale</text>
</svg>
