<!-- generated by tools/diagrams; do not edit, change the generator and run `python -m tools.diagrams.build` -->
<svg xmlns="http://www.w3.org/2000/svg" viewBox="0 0 640 404" role="img" data-prefix="plc">
<title>The walk-around items the law requires</title>
<desc>Plan view of the aeroplane with eight numbered items: 1 locking devices removed (control and gust locks, pitot cover, engine blanks); 2 doors and hatches secured; 3 tank caps fitted and secure; 4 frost, ice and snow removed from wings, tail and control surfaces; 5 flight controls full, free and correct; 6 instruments checked; 7 the empty control seat's harness secured before solo; 8 fuel drained at each drain point for water and contamination, at the first flight of the day and after refuelling, once the fuel has settled.</desc>
<defs><marker id="arrow" viewBox="0 0 8 8" refX="7" refY="4" markerWidth="5" markerHeight="5" orient="auto-start-reverse"><path d="M0 0 L8 4 L0 8 z" fill="context-stroke"/></marker></defs>
<text x="320" y="28" font-size="15" text-anchor="middle" fill="var(--color-fg)" font-weight="700">Behind the checklist: eight items the law requires</text>
<g transform="translate(336 214) rotate(0) scale(2.3)"><path d="M12 -4 L4 -50 L-6 -50 L-8 -4 Z M12 4 L4 50 L-6 50 L-8 4 Z" stroke="var(--color-fg)" stroke-width="2" fill="var(--color-surface)" stroke-linecap="round" stroke-linejoin="round"/><path d="M-24 -2 L-28 -18 L-34 -18 L-34 -2 Z M-24 2 L-28 18 L-34 18 L-34 2 Z" stroke="var(--color-fg)" stroke-width="2" fill="var(--color-surface)" stroke-linecap="round" stroke-linejoin="round"/><path d="M38 0 C38 -4 32 -5 26 -5 L-24 -3 L-34 -2 L-34 2 L-24 3 L26 5 C32 5 38 4 38 0 Z" stroke="var(--color-fg)" stroke-width="2" fill="var(--color-surface)" stroke-linecap="round" stroke-linejoin="round"/><path d="M38 -2 L43 0 L38 2 Z" stroke="var(--color-fg)" stroke-width="2" fill="var(--color-surface)" stroke-linecap="round" stroke-linejoin="round"/><line x1="41" y1="-10" x2="41" y2="10" stroke="var(--color-fg)" stroke-width="1.25" stroke-linecap="round"/></g>
<line x1="352.1" y1="131.2" x2="368.1" y2="131.2" stroke="var(--color-brand)" stroke-width="3" stroke-linecap="round"/>
<line x1="359" y1="202.04" x2="391.2" y2="202.04" stroke="var(--color-brand)" stroke-width="3.5" stroke-linecap="round"/>
<line x1="359" y1="225.96" x2="391.2" y2="225.96" stroke="var(--color-brand)" stroke-width="3.5" stroke-linecap="round"/>
<circle cx="333.7" cy="158.8" r="4.5" fill="var(--color-surface)" stroke="var(--color-brand)" stroke-width="2"/>
<circle cx="333.7" cy="269.2" r="4.5" fill="var(--color-surface)" stroke="var(--color-brand)" stroke-width="2"/>
<circle cx="349.8" cy="172.6" r="4.5" fill="var(--color-ok-soft)" stroke="var(--color-ok)" stroke-width="1.25" stroke-dasharray="2 2"/>
<circle cx="349.8" cy="255.4" r="4.5" fill="var(--color-ok-soft)" stroke="var(--color-ok)" stroke-width="1.25" stroke-dasharray="2 2"/>
<circle cx="409.6" cy="214" r="4.5" fill="var(--color-ok-soft)" stroke="var(--color-ok)" stroke-width="1.25" stroke-dasharray="2 2"/>
<line x1="322.2" y1="145" x2="322.2" y2="101.3" stroke="var(--color-brand)" stroke-width="3.5" stroke-linecap="round"/>
<line x1="260.1" y1="204.8" x2="260.1" y2="174.9" stroke="var(--color-brand)" stroke-width="3.5" stroke-linecap="round"/>
<line x1="322.2" y1="283" x2="322.2" y2="326.7" stroke="var(--color-brand)" stroke-width="3.5" stroke-linecap="round"/>
<line x1="260.1" y1="223.2" x2="260.1" y2="253.1" stroke="var(--color-brand)" stroke-width="3.5" stroke-linecap="round"/>
<line x1="352.1" y1="131.2" x2="368.1" y2="117.2" stroke="var(--color-fg-muted)" stroke-width="1" stroke-linecap="round"/>
<circle cx="368.1" cy="117.2" r="10" fill="var(--color-brand)" stroke="var(--color-surface)" stroke-width="1.5"/>
<text x="368.1" y="121.7" font-size="12" text-anchor="middle" fill="var(--color-surface)" font-weight="700" class="num">1</text>
<line x1="375.1" y1="202.5" x2="375.1" y2="180.5" stroke="var(--color-fg-muted)" stroke-width="1" stroke-linecap="round"/>
<circle cx="375.1" cy="180.5" r="10" fill="var(--color-brand)" stroke="var(--color-surface)" stroke-width="1.5"/>
<text x="375.1" y="185" font-size="12" text-anchor="middle" fill="var(--color-surface)" font-weight="700" class="num">2</text>
<line x1="333.7" y1="158.8" x2="315.7" y2="150.8" stroke="var(--color-fg-muted)" stroke-width="1" stroke-linecap="round"/>
<circle cx="315.7" cy="150.8" r="10" fill="var(--color-brand)" stroke="var(--color-surface)" stroke-width="1.5"/>
<text x="315.7" y="155.3" font-size="12" text-anchor="middle" fill="var(--color-surface)" font-weight="700" class="num">3</text>
<line x1="267" y1="253.1" x2="255" y2="267.1" stroke="var(--color-fg-muted)" stroke-width="1" stroke-linecap="round"/>
<circle cx="255" cy="267.1" r="10" fill="var(--color-brand)" stroke="var(--color-surface)" stroke-width="1.5"/>
<text x="255" y="271.6" font-size="12" text-anchor="middle" fill="var(--color-surface)" font-weight="700" class="num">4</text>
<line x1="322.2" y1="315.2" x2="304.2" y2="319.2" stroke="var(--color-fg-muted)" stroke-width="1" stroke-linecap="round"/>
<circle cx="304.2" cy="319.2" r="10" fill="var(--color-brand)" stroke="var(--color-surface)" stroke-width="1.5"/>
<text x="304.2" y="323.7" font-size="12" text-anchor="middle" fill="var(--color-surface)" font-weight="700" class="num">5</text>
<line x1="395.8" y1="209.4" x2="403.8" y2="179.4" stroke="var(--color-fg-muted)" stroke-width="1" stroke-linecap="round"/>
<circle cx="403.8" cy="179.4" r="10" fill="var(--color-brand)" stroke="var(--color-surface)" stroke-width="1.5"/>
<text x="403.8" y="183.9" font-size="12" text-anchor="middle" fill="var(--color-surface)" font-weight="700" class="num">6</text>
<line x1="372.8" y1="220.9" x2="372.8" y2="240.9" stroke="var(--color-fg-muted)" stroke-width="1" stroke-linecap="round"/>
<circle cx="372.8" cy="240.9" r="10" fill="var(--color-brand)" stroke="var(--color-surface)" stroke-width="1.5"/>
<text x="372.8" y="245.4" font-size="12" text-anchor="middle" fill="var(--color-surface)" font-weight="700" class="num">7</text>
<line x1="349.8" y1="255.4" x2="367.8" y2="263.4" stroke="var(--color-fg-muted)" stroke-width="1" stroke-linecap="round"/>
<circle cx="367.8" cy="263.4" r="10" fill="var(--color-brand)" stroke="var(--color-surface)" stroke-width="1.5"/>
<text x="367.8" y="267.9" font-size="12" text-anchor="middle" fill="var(--color-surface)" font-weight="700" class="num">8</text>
<circle cx="30" cy="66" r="10" fill="var(--color-brand)" stroke="var(--color-surface)" stroke-width="1.5"/>
<text x="30" y="70.5" font-size="12" text-anchor="middle" fill="var(--color-surface)" font-weight="700" class="num">1</text>
<text x="46" y="70" font-size="12.5" fill="var(--color-fg)" font-weight="700">Locks and covers off</text>
<text x="46" y="86" font-size="11.5" fill="var(--color-fg-muted)">control and gust locks,</text><text x="46" y="100.95" font-size="11.5" fill="var(--color-fg-muted)">pitot cover, engine blanks</text>
<circle cx="30" cy="130" r="10" fill="var(--color-brand)" stroke="var(--color-surface)" stroke-width="1.5"/>
<text x="30" y="134.5" font-size="12" text-anchor="middle" fill="var(--color-surface)" font-weight="700" class="num">2</text>
<text x="46" y="134" font-size="12.5" fill="var(--color-fg)" font-weight="700">Doors and hatches secured</text>
<text x="46" y="150" font-size="11.5" fill="var(--color-fg-muted)">an open door distracts</text>
<circle cx="30" cy="179" r="10" fill="var(--color-brand)" stroke="var(--color-surface)" stroke-width="1.5"/>
<text x="30" y="183.5" font-size="12" text-anchor="middle" fill="var(--color-surface)" font-weight="700" class="num">3</text>
<text x="46" y="183" font-size="12.5" fill="var(--color-fg)" font-weight="700">Tank caps secure</text>
<text x="46" y="199" font-size="11.5" fill="var(--color-fg-muted)">or fuel siphons out</text>
<circle cx="30" cy="228" r="10" fill="var(--color-brand)" stroke="var(--color-surface)" stroke-width="1.5"/>
<text x="30" y="232.5" font-size="12" text-anchor="middle" fill="var(--color-surface)" font-weight="700" class="num">4</text>
<text x="46" y="232" font-size="12.5" fill="var(--color-fg)" font-weight="700">Frost, ice, snow removed</text>
<text x="46" y="248" font-size="11.5" fill="var(--color-fg-muted)">even thin frost cuts lift</text>
<circle cx="458" cy="66" r="10" fill="var(--color-brand)" stroke="var(--color-surface)" stroke-width="1.5"/>
<text x="458" y="70.5" font-size="12" text-anchor="middle" fill="var(--color-surface)" font-weight="700" class="num">5</text>
<text x="474" y="70" font-size="12.5" fill="var(--color-fg)" font-weight="700">Controls full, free</text>
<text x="474" y="86" font-size="11.5" fill="var(--color-fg-muted)">and correct movement</text>
<circle cx="458" cy="115" r="10" fill="var(--color-brand)" stroke="var(--color-surface)" stroke-width="1.5"/>
<text x="458" y="119.5" font-size="12" text-anchor="middle" fill="var(--color-surface)" font-weight="700" class="num">6</text>
<text x="474" y="119" font-size="12.5" fill="var(--color-fg)" font-weight="700">Instruments checked</text>
<text x="474" y="135" font-size="11.5" fill="var(--color-fg-muted)">altimeter, gyros,</text><text x="474" y="149.95" font-size="11.5" fill="var(--color-fg-muted)">ASI reading zero</text>
<circle cx="458" cy="179" r="10" fill="var(--color-brand)" stroke="var(--color-surface)" stroke-width="1.5"/>
<text x="458" y="183.5" font-size="12" text-anchor="middle" fill="var(--color-surface)" font-weight="700" class="num">7</text>
<text x="474" y="183" font-size="12.5" fill="var(--color-fg)" font-weight="700">Empty seat harness</text>
<text x="474" y="199" font-size="11.5" fill="var(--color-fg-muted)">secured before solo</text>
<circle cx="458" cy="228" r="10" fill="var(--color-brand)" stroke="var(--color-surface)" stroke-width="1.5"/>
<text x="458" y="232.5" font-size="12" text-anchor="middle" fill="var(--color-surface)" font-weight="700" class="num">8</text>
<text x="474" y="232" font-size="12.5" fill="var(--color-fg)" font-weight="700">Fuel drains sampled</text>
<text x="474" y="248" font-size="11.5" fill="var(--color-fg-muted)">at each drain point, first</text><text x="474" y="262.95" font-size="11.5" fill="var(--color-fg-muted)">flight of the day and after</text><text x="474" y="277.9" font-size="11.5" fill="var(--color-fg-muted)">refuelling, once settled</text>
<circle cx="170" cy="384" r="4.5" fill="var(--color-ok-soft)" stroke="var(--color-ok)" stroke-width="1.25" stroke-dasharray="2 2"/>
<text x="180" y="388" font-size="11.5" fill="var(--color-fg-muted)">drain points (underneath)</text>
<line x1="350" y1="384" x2="370" y2="384" stroke="var(--color-brand)" stroke-width="3.5" stroke-linecap="round"/>
<text x="378" y="388" font-size="11.5" fill="var(--color-fg-muted)">items to check</text>
</svg>
