<!-- generated by tools/diagrams; do not edit, change the generator and run `python -m tools.diagrams.build` -->
<svg xmlns="http://www.w3.org/2000/svg" viewBox="0 0 640 390" role="img" data-prefix="rpp">
<title>Three paths for a radio wave</title>
<desc>A transmitter on the curved earth. The ground wave (LF and MF) hugs the surface and fades with distance, further over sea than over land: this is how NDBs are received. The sky wave (HF) is refracted back down by the ionosphere, about 60 to 400 km up, and reaches the ground far away, hop after hop. The space wave (VHF and UHF) travels in a straight line: it reaches an aircraft in line of sight, and a wave aimed upwards passes through the ionosphere into space.</desc>
<style>.rpp-sig{stroke-dasharray:14 10;animation:rpp-sig 1.5s linear infinite}
@keyframes rpp-sig{from{stroke-dashoffset:48}to{stroke-dashoffset:0}}</style>
<defs><marker id="arrow" viewBox="0 0 8 8" refX="7" refY="4" markerWidth="5" markerHeight="5" orient="auto-start-reverse"><path d="M0 0 L8 4 L0 8 z" fill="context-stroke"/></marker></defs>
<path d="M0 116.53 L16 112.92 L32 109.51 L48 106.29 L64 103.27 L80 100.43 L96 97.78 L112 95.32 L128 93.04 L144 90.95 L160 89.04 L176 87.32 L192 85.78 L208 84.42 L224 83.25 L240 82.26 L256 81.44 L272 80.81 L288 80.36 L304 80.09 L320 80 L336 80.09 L352 80.36 L368 80.81 L384 81.44 L400 82.26 L416 83.25 L432 84.42 L448 85.78 L464 87.32 L480 89.04 L496 90.95 L512 93.04 L528 95.32 L544 97.78 L560 100.43 L576 103.27 L592 106.29 L608 109.51 L624 112.92 L640 116.53 L640 147.34 L624 143.65 L608 140.16 L592 136.87 L576 133.78 L560 130.88 L544 128.17 L528 125.65 L512 123.32 L496 121.19 L480 119.24 L464 117.48 L448 115.91 L432 114.52 L416 113.32 L400 112.3 L384 111.47 L368 110.83 L352 110.37 L336 110.09 L320 110 L304 110.09 L288 110.37 L272 110.83 L256 111.47 L240 112.3 L224 113.32 L208 114.52 L192 115.91 L176 117.48 L160 119.24 L144 121.19 L128 123.32 L112 125.65 L96 128.17 L80 130.88 L64 133.78 L48 136.87 L32 140.16 L16 143.65 L0 147.34 Z" stroke="none" fill="var(--color-sky-soft)"/>
<path d="M0 147.33 L16 143.64 L32 140.15 L48 136.86 L64 133.77 L80 130.87 L96 128.16 L112 125.64 L128 123.31 L144 121.18 L160 119.23 L176 117.47 L192 115.9 L208 114.51 L224 113.31 L240 112.29 L256 111.46 L272 110.82 L288 110.36 L304 110.08 L320 109.99 L336 110.08 L352 110.36 L368 110.82 L384 111.46 L400 112.29 L416 113.31 L432 114.51 L448 115.9 L464 117.47 L480 119.23 L496 121.18 L512 123.31 L528 125.64 L544 128.16 L560 130.87 L576 133.77 L592 136.86 L608 140.15 L624 143.64 L640 147.33 L640 147.34 L624 143.65 L608 140.16 L592 136.87 L576 133.78 L560 130.88 L544 128.17 L528 125.65 L512 123.32 L496 121.19 L480 119.24 L464 117.48 L448 115.91 L432 114.52 L416 113.32 L400 112.3 L384 111.47 L368 110.83 L352 110.37 L336 110.09 L320 110 L304 110.09 L288 110.37 L272 110.83 L256 111.47 L240 112.3 L224 113.32 L208 114.52 L192 115.91 L176 117.48 L160 119.24 L144 121.19 L128 123.32 L112 125.65 L96 128.17 L80 130.88 L64 133.78 L48 136.87 L32 140.16 L16 143.65 L0 147.34 Z" stroke="var(--color-sky-fg)" stroke-width="1" fill="none" stroke-dasharray="4 3" stroke-linecap="round" stroke-linejoin="round"/>
<text x="382" y="101" font-size="12" text-anchor="middle" fill="var(--color-sky-fg)" font-weight="600">ionosphere, 60 to 400 km up</text>
<path d="M0 322.71 L16 318.48 L32 314.48 L48 310.71 L64 307.16 L80 303.84 L96 300.74 L112 297.86 L128 295.2 L144 292.76 L160 290.54 L176 288.53 L192 286.73 L208 285.15 L224 283.78 L240 282.63 L256 281.68 L272 280.94 L288 280.42 L304 280.1 L320 280 L336 280.1 L352 280.42 L368 280.94 L384 281.68 L400 282.63 L416 283.78 L432 285.15 L448 286.73 L464 288.53 L480 290.54 L496 292.76 L512 295.2 L528 297.86 L544 300.74 L560 303.84 L576 307.16 L592 310.71 L608 314.48 L624 318.48 L640 322.71 L640 637.45 L624 631.68 L608 626.24 L592 621.13 L576 616.33 L560 611.86 L544 607.69 L528 603.82 L512 600.26 L496 596.99 L480 594.02 L464 591.34 L448 588.95 L432 586.84 L416 585.02 L400 583.48 L384 582.23 L368 581.25 L352 580.56 L336 580.14 L320 580 L304 580.14 L288 580.56 L272 581.25 L256 582.23 L240 583.48 L224 585.02 L208 586.84 L192 588.95 L176 591.34 L160 594.02 L144 596.99 L128 600.26 L112 603.82 L96 607.69 L80 611.86 L64 616.33 L48 621.13 L32 626.24 L16 631.68 L0 637.45 Z" stroke="var(--color-line-strong)" stroke-width="1.25" fill="var(--color-surface-2)" stroke-linecap="round" stroke-linejoin="round"/>
<line x1="150" y1="291.9" x2="150" y2="261.9" stroke="var(--color-fg)" stroke-width="2" stroke-linecap="round"/>
<polygon points="141,291.9 159,291.9 150,273.9" fill="none" stroke="var(--color-fg)" stroke-width="1.25" stroke-linejoin="round"/>
<line x1="162" y1="283.22" x2="172" y2="281.96" stroke="var(--color-info)" stroke-width="2" stroke-linecap="round" opacity="1"/>
<line x1="178" y1="281.24" x2="188" y2="280.12" stroke="var(--color-info)" stroke-width="2" stroke-linecap="round" opacity="0.91"/>
<line x1="194" y1="279.49" x2="204" y2="278.5" stroke="var(--color-info)" stroke-width="2" stroke-linecap="round" opacity="0.82"/>
<line x1="210" y1="277.94" x2="220" y2="277.08" stroke="var(--color-info)" stroke-width="2" stroke-linecap="round" opacity="0.73"/>
<line x1="226" y1="276.61" x2="236" y2="275.88" stroke="var(--color-info)" stroke-width="2" stroke-linecap="round" opacity="0.64"/>
<line x1="242" y1="275.48" x2="252" y2="274.89" stroke="var(--color-info)" stroke-width="2" stroke-linecap="round" opacity="0.55"/>
<line x1="258" y1="274.57" x2="268" y2="274.1" stroke="var(--color-info)" stroke-width="2" stroke-linecap="round" opacity="0.46"/>
<line x1="274" y1="273.86" x2="284" y2="273.53" stroke="var(--color-info)" stroke-width="2" stroke-linecap="round" opacity="0.37"/>
<line x1="290" y1="273.37" x2="300" y2="273.16" stroke="var(--color-info)" stroke-width="2" stroke-linecap="round" opacity="0.28"/>
<line x1="306" y1="273.08" x2="316" y2="273.01" stroke="var(--color-info)" stroke-width="2" stroke-linecap="round" opacity="0.19"/>
<text x="156" y="317.9" font-size="12.5" fill="var(--color-info-fg)" font-weight="700">Ground wave (LF, MF): follows the curve and fades;</text>
<text x="156" y="334.9" font-size="12" fill="var(--color-info-fg)">further over sea than land. How NDBs are received.</text>
<path d="M150 261.9 L262 101.2 L372 281.11 L482 109.4 L592 310.71 L592 310.71" stroke="var(--color-brand-soft)" stroke-width="4" fill="none" stroke-linecap="round" stroke-linejoin="round"/>
<path d="M150 261.9 L262 101.2 L372 281.11 L482 109.4 L592 310.71 L592 310.71" stroke="var(--color-brand)" stroke-width="2" fill="none" stroke-linecap="round" stroke-linejoin="round" class="rpp-sig"/>
<circle cx="372" cy="281.11" r="4" fill="var(--color-brand)" stroke="var(--color-surface)" stroke-width="1.5"/>
<circle cx="592" cy="310.71" r="4" fill="var(--color-brand)" stroke="var(--color-surface)" stroke-width="1.5"/>
<text x="620" y="40" font-size="12.5" text-anchor="end" fill="var(--color-brand)" font-weight="700">Sky wave (HF): bent back down by the</text>
<text x="620" y="57" font-size="12" text-anchor="end" fill="var(--color-brand)">ionosphere; hop after hop, thousands of km</text>
<g transform="translate(70 226) rotate(0) scale(0.5)"><path d="M-36 -0.5 L-54 0.5 L-54 3.5 L-38 4 Z" stroke="var(--color-fg)" stroke-width="3.6" fill="var(--color-surface)" stroke-linecap="round" stroke-linejoin="round"/><path d="M48 -5 C44 -7 38 -8 30 -9 L16 -9.5 L6 -19 L-14 -19 C-20 -17 -26 -13 -30 -9 L-48 -3 L-49 2 L-40 5 L-14 7 L-10 7.5 L36 7.5 C44 7 48 5 48 4 Z" stroke="var(--color-fg)" stroke-width="3.6" fill="var(--color-surface)" stroke-linecap="round" stroke-linejoin="round"/><path d="M-30 -9 C-34 -14 -38 -22 -43 -31 L-49 -31 L-48 -3 Z" stroke="var(--color-fg)" stroke-width="3.6" fill="var(--color-surface)" stroke-linecap="round" stroke-linejoin="round"/><line x1="-45.5" y1="-30" x2="-47.3" y2="-5" stroke="var(--color-fg)" stroke-width="1.8" stroke-linecap="round"/><line x1="6" y1="6" x2="1" y2="-19" stroke="var(--color-fg)" stroke-width="2.25" stroke-linecap="round"/><path d="M8 -19 C9 -23.5 4 -24 0 -24 L-13 -22.5 L-14 -19 Z" stroke="var(--color-fg)" stroke-width="3.6" fill="var(--color-surface)" stroke-linecap="round" stroke-linejoin="round"/><path d="M15.5 -10 L6.5 -18.5 L5 -18.5 L5 -10 Z" stroke="var(--color-fg)" stroke-width="1.8" fill="var(--color-surface-2)" stroke-linecap="round" stroke-linejoin="round"/><path d="M3.5 -18 L-4 -18 L-4 -10.5 L3.5 -10.5 Z" stroke="var(--color-fg)" stroke-width="1.8" fill="var(--color-surface-2)" stroke-linecap="round" stroke-linejoin="round"/><path d="M-5.5 -18 L-12 -17 L-12 -10.5 L-5.5 -10.5 Z" stroke="var(--color-fg)" stroke-width="1.8" fill="var(--color-surface-2)" stroke-linecap="round" stroke-linejoin="round"/><path d="M48 -4 L55 0 L48 4 Z" stroke="var(--color-fg)" stroke-width="3.6" fill="var(--color-surface)" stroke-linecap="round" stroke-linejoin="round"/><line x1="51" y1="-13" x2="51" y2="13" stroke="var(--color-fg)" stroke-width="2.25" stroke-linecap="round"/><line x1="30" y1="7.5" x2="30" y2="13" stroke="var(--color-fg)" stroke-width="2.25" stroke-linecap="round"/><circle cx="30" cy="16.5" r="3" fill="var(--color-fg)" stroke="none"/><line x1="-2" y1="7.5" x2="-8" y2="13" stroke="var(--color-fg)" stroke-width="2.25" stroke-linecap="round"/><circle cx="-8" cy="16" r="3.5" fill="var(--color-fg)" stroke="none"/></g>
<line x1="144" y1="258.9" x2="104" y2="232" stroke="var(--color-fg)" stroke-width="1.25" stroke-linecap="round" marker-end="url(#arrow)"/>
<line x1="148" y1="255.9" x2="112" y2="76" stroke="var(--color-fg)" stroke-width="1.25" stroke-linecap="round" marker-end="url(#arrow)"/>
<text x="20" y="40" font-size="12.5" fill="var(--color-fg)" font-weight="700">Space wave (VHF, UHF): straight</text>
<text x="20" y="57" font-size="12" fill="var(--color-fg)">line, line of sight; passes through</text>
<text x="20" y="72" font-size="12" fill="var(--color-fg)">the ionosphere into space</text>
<text x="620" y="376" font-size="11.5" text-anchor="end" fill="var(--color-fg-muted)">Not to scale. Which path dominates depends on the frequency.</text>
</svg>
