<!-- generated by tools/diagrams; do not edit, change the generator and run `python -m tools.diagrams.build` -->
<svg xmlns="http://www.w3.org/2000/svg" viewBox="0 0 640 476" role="img" data-prefix="vcl">
<title>VFR cruising levels above 5,000 ft</title>
<desc>A compass rose split in half by magnetic track. Tracks 000 to 179 degrees, the eastern half: odd thousands plus 500 ft, that is 5,500, 7,500 and 9,500 ft. Tracks 180 to 359 degrees, the western half: even thousands plus 500 ft, that is 6,500 and 8,500 ft. Below 5,000 ft any altitude may be flown, subject to minimum heights.</desc>
<defs><marker id="arrow" viewBox="0 0 8 8" refX="7" refY="4" markerWidth="5" markerHeight="5" orient="auto-start-reverse"><path d="M0 0 L8 4 L0 8 z" fill="context-stroke"/></marker></defs>
<path d="M320 46 A168 168 0 0 1 320 382 Z" stroke="none" fill="var(--color-brand-soft)"/>
<path d="M320 46 A168 168 0 0 0 320 382 Z" stroke="none" fill="var(--color-info-soft)"/>
<circle cx="320" cy="214" r="168" fill="none" stroke="var(--color-fg-muted)" stroke-width="1.25"/>
<line x1="320" y1="36" x2="320" y2="392" stroke="var(--color-fg)" stroke-width="2" stroke-linecap="round"/>
<line x1="320" y1="46" x2="320" y2="56" stroke="var(--color-fg-muted)" stroke-width="1" stroke-linecap="round"/>
<line x1="349.17" y1="48.55" x2="348.3" y2="53.48" stroke="var(--color-fg-muted)" stroke-width="1" stroke-linecap="round"/>
<line x1="377.46" y1="56.13" x2="375.75" y2="60.83" stroke="var(--color-fg-muted)" stroke-width="1" stroke-linecap="round"/>
<line x1="404" y1="68.51" x2="399" y2="77.17" stroke="var(--color-fg-muted)" stroke-width="1" stroke-linecap="round"/>
<line x1="427.99" y1="85.3" x2="424.77" y2="89.13" stroke="var(--color-fg-muted)" stroke-width="1" stroke-linecap="round"/>
<line x1="448.7" y1="106.01" x2="444.87" y2="109.23" stroke="var(--color-fg-muted)" stroke-width="1" stroke-linecap="round"/>
<line x1="465.49" y1="130" x2="456.83" y2="135" stroke="var(--color-fg-muted)" stroke-width="1" stroke-linecap="round"/>
<line x1="477.87" y1="156.54" x2="473.17" y2="158.25" stroke="var(--color-fg-muted)" stroke-width="1" stroke-linecap="round"/>
<line x1="485.45" y1="184.83" x2="480.52" y2="185.7" stroke="var(--color-fg-muted)" stroke-width="1" stroke-linecap="round"/>
<line x1="488" y1="214" x2="478" y2="214" stroke="var(--color-fg-muted)" stroke-width="1" stroke-linecap="round"/>
<line x1="485.45" y1="243.17" x2="480.52" y2="242.3" stroke="var(--color-fg-muted)" stroke-width="1" stroke-linecap="round"/>
<line x1="477.87" y1="271.46" x2="473.17" y2="269.75" stroke="var(--color-fg-muted)" stroke-width="1" stroke-linecap="round"/>
<line x1="465.49" y1="298" x2="456.83" y2="293" stroke="var(--color-fg-muted)" stroke-width="1" stroke-linecap="round"/>
<line x1="448.7" y1="321.99" x2="444.87" y2="318.77" stroke="var(--color-fg-muted)" stroke-width="1" stroke-linecap="round"/>
<line x1="427.99" y1="342.7" x2="424.77" y2="338.87" stroke="var(--color-fg-muted)" stroke-width="1" stroke-linecap="round"/>
<line x1="404" y1="359.49" x2="399" y2="350.83" stroke="var(--color-fg-muted)" stroke-width="1" stroke-linecap="round"/>
<line x1="377.46" y1="371.87" x2="375.75" y2="367.17" stroke="var(--color-fg-muted)" stroke-width="1" stroke-linecap="round"/>
<line x1="349.17" y1="379.45" x2="348.3" y2="374.52" stroke="var(--color-fg-muted)" stroke-width="1" stroke-linecap="round"/>
<line x1="320" y1="382" x2="320" y2="372" stroke="var(--color-fg-muted)" stroke-width="1" stroke-linecap="round"/>
<line x1="290.83" y1="379.45" x2="291.7" y2="374.52" stroke="var(--color-fg-muted)" stroke-width="1" stroke-linecap="round"/>
<line x1="262.54" y1="371.87" x2="264.25" y2="367.17" stroke="var(--color-fg-muted)" stroke-width="1" stroke-linecap="round"/>
<line x1="236" y1="359.49" x2="241" y2="350.83" stroke="var(--color-fg-muted)" stroke-width="1" stroke-linecap="round"/>
<line x1="212.01" y1="342.7" x2="215.23" y2="338.87" stroke="var(--color-fg-muted)" stroke-width="1" stroke-linecap="round"/>
<line x1="191.3" y1="321.99" x2="195.13" y2="318.77" stroke="var(--color-fg-muted)" stroke-width="1" stroke-linecap="round"/>
<line x1="174.51" y1="298" x2="183.17" y2="293" stroke="var(--color-fg-muted)" stroke-width="1" stroke-linecap="round"/>
<line x1="162.13" y1="271.46" x2="166.83" y2="269.75" stroke="var(--color-fg-muted)" stroke-width="1" stroke-linecap="round"/>
<line x1="154.55" y1="243.17" x2="159.48" y2="242.3" stroke="var(--color-fg-muted)" stroke-width="1" stroke-linecap="round"/>
<line x1="152" y1="214" x2="162" y2="214" stroke="var(--color-fg-muted)" stroke-width="1" stroke-linecap="round"/>
<line x1="154.55" y1="184.83" x2="159.48" y2="185.7" stroke="var(--color-fg-muted)" stroke-width="1" stroke-linecap="round"/>
<line x1="162.13" y1="156.54" x2="166.83" y2="158.25" stroke="var(--color-fg-muted)" stroke-width="1" stroke-linecap="round"/>
<line x1="174.51" y1="130" x2="183.17" y2="135" stroke="var(--color-fg-muted)" stroke-width="1" stroke-linecap="round"/>
<line x1="191.3" y1="106.01" x2="195.13" y2="109.23" stroke="var(--color-fg-muted)" stroke-width="1" stroke-linecap="round"/>
<line x1="212.01" y1="85.3" x2="215.23" y2="89.13" stroke="var(--color-fg-muted)" stroke-width="1" stroke-linecap="round"/>
<line x1="236" y1="68.51" x2="241" y2="77.17" stroke="var(--color-fg-muted)" stroke-width="1" stroke-linecap="round"/>
<line x1="262.54" y1="56.13" x2="264.25" y2="60.83" stroke="var(--color-fg-muted)" stroke-width="1" stroke-linecap="round"/>
<line x1="290.83" y1="48.55" x2="291.7" y2="53.48" stroke="var(--color-fg-muted)" stroke-width="1" stroke-linecap="round"/>
<text x="350" y="28" font-size="12" text-anchor="middle" fill="var(--color-fg-muted)" font-weight="600" class="num">000°</text>
<text x="510" y="218" font-size="12" text-anchor="middle" fill="var(--color-fg-muted)" font-weight="600" class="num">090°</text>
<text x="350" y="410" font-size="12" text-anchor="middle" fill="var(--color-fg-muted)" font-weight="600" class="num">180°</text>
<text x="130" y="218" font-size="12" text-anchor="middle" fill="var(--color-fg-muted)" font-weight="600" class="num">270°</text>
<text x="294" y="34" font-size="13" text-anchor="middle" fill="var(--color-fg)" font-weight="700">N</text>
<text x="294" y="400" font-size="13" text-anchor="middle" fill="var(--color-fg)" font-weight="700">S</text>
<text x="396" y="104" font-size="13" text-anchor="middle" fill="var(--color-brand-fg)" font-weight="700">track 000°–179°</text>
<text x="396" y="122" font-size="11.5" text-anchor="middle" fill="var(--color-brand-fg)">odd thousands + 500</text>
<rect x="348" y="164" width="96" height="28" rx="14" fill="var(--color-brand-soft)" stroke="var(--color-brand)" stroke-width="1"/><text x="396" y="183.4" font-size="15" text-anchor="middle" fill="var(--color-brand-fg)" font-weight="700">9,500</text><rect x="348" y="200" width="96" height="28" rx="14" fill="var(--color-brand-soft)" stroke="var(--color-brand)" stroke-width="1"/><text x="396" y="219.4" font-size="15" text-anchor="middle" fill="var(--color-brand-fg)" font-weight="700">7,500</text><rect x="348" y="236" width="96" height="28" rx="14" fill="var(--color-brand-soft)" stroke="var(--color-brand)" stroke-width="1"/><text x="396" y="255.4" font-size="15" text-anchor="middle" fill="var(--color-brand-fg)" font-weight="700">5,500</text>
<text x="244" y="104" font-size="13" text-anchor="middle" fill="var(--color-info-fg)" font-weight="700">track 180°–359°</text>
<text x="244" y="122" font-size="11.5" text-anchor="middle" fill="var(--color-info-fg)">even thousands + 500</text>
<rect x="196" y="182" width="96" height="28" rx="14" fill="var(--color-info-soft)" stroke="var(--color-info)" stroke-width="1"/><text x="244" y="201.4" font-size="15" text-anchor="middle" fill="var(--color-info-fg)" font-weight="700">8,500</text><rect x="196" y="218" width="96" height="28" rx="14" fill="var(--color-info-soft)" stroke="var(--color-info)" stroke-width="1"/><text x="244" y="237.4" font-size="15" text-anchor="middle" fill="var(--color-info-fg)" font-weight="700">6,500</text>
<text x="396" y="300" font-size="11" text-anchor="middle" fill="var(--color-brand-fg)">e.g. track 090°</text>
<text x="244" y="300" font-size="11" text-anchor="middle" fill="var(--color-info-fg)">e.g. track 270°</text>
<text x="396" y="316" font-size="11" text-anchor="middle" fill="var(--color-brand-fg)">fly 5,500 or 7,500</text>
<text x="244" y="316" font-size="11" text-anchor="middle" fill="var(--color-info-fg)">fly 6,500 or 8,500</text>
<text x="28" y="30" font-size="13" fill="var(--color-fg-muted)" font-weight="700">Magnetic track</text>
<text x="28" y="446" font-size="12" fill="var(--color-fg-muted)">Applies to VFR flights above 5,000 ft. Below 5,000 ft any altitude may be flown,</text>
<text x="28" y="463" font-size="12" fill="var(--color-fg-muted)">subject to the minimum heights and good practice.</text>
</svg>
